<svg xmlns="http://www.w3.org/2000/svg" xmlns:xlink="http://www.w3.org/1999/xlink" viewBox="46 47 307 206"><g id="svgg"><path id="path0" d="M198.338 47.257 C 191.548 47.562,181.506 49.147,178.388 50.407 C 178.101 50.523,177.747 50.632,177.603 50.649 C 176.846 50.738,172.899 52.210,172.996 52.368 C 173.062 52.474,173.021 52.494,172.896 52.417 C 172.609 52.240,169.874 53.354,170.020 53.589 C 170.089 53.702,170.047 53.719,169.911 53.635 C 169.629 53.461,167.604 54.411,167.751 54.649 C 167.810 54.745,167.770 54.768,167.660 54.700 C 167.407 54.543,166.711 54.907,166.846 55.125 C 166.902 55.215,166.826 55.243,166.678 55.186 C 166.365 55.065,163.398 56.676,163.533 56.893 C 163.582 56.973,163.520 57.007,163.395 56.967 C 163.095 56.872,160.005 59.011,160.059 59.275 C 160.082 59.388,159.994 59.439,159.863 59.389 C 159.732 59.338,159.241 59.613,158.771 59.999 C 155.929 62.335,154.665 63.525,154.799 63.741 C 154.860 63.840,154.832 63.873,154.737 63.814 C 154.397 63.604,151.096 67.423,151.303 67.787 C 151.363 67.893,151.351 67.924,151.277 67.857 C 151.203 67.791,150.971 67.948,150.762 68.207 C 150.240 68.855,149.406 70.166,149.516 70.166 C 149.566 70.166,149.467 70.305,149.297 70.475 C 148.605 71.168,146.167 76.633,145.873 78.151 C 145.838 78.331,145.765 78.596,145.711 78.740 C 145.094 80.395,144.355 86.262,144.763 86.267 C 145.485 86.276,144.243 86.603,143.102 86.704 C 142.348 86.771,141.686 86.898,141.632 86.985 C 141.577 87.073,141.463 87.101,141.376 87.048 C 140.675 86.614,130.269 89.228,125.375 91.067 C 119.913 93.120,112.780 96.599,113.165 97.022 C 113.238 97.103,113.200 97.112,113.080 97.043 C 112.849 96.911,112.093 97.337,112.261 97.505 C 112.315 97.559,112.216 97.591,112.041 97.577 C 111.867 97.562,111.742 97.646,111.765 97.763 C 111.788 97.880,111.702 97.935,111.574 97.886 C 111.447 97.837,111.241 97.919,111.118 98.067 C 110.994 98.216,110.818 98.338,110.725 98.338 C 110.386 98.338,107.451 100.494,107.557 100.665 C 107.617 100.762,107.586 100.792,107.488 100.732 C 107.339 100.640,106.317 101.305,105.327 102.137 C 105.188 102.254,104.759 102.603,104.374 102.912 C 102.491 104.425,98.815 108.093,98.956 108.321 C 99.015 108.417,98.959 108.473,98.832 108.447 C 98.704 108.421,98.620 108.497,98.644 108.618 C 98.668 108.738,98.618 108.817,98.534 108.793 C 98.364 108.744,96.940 110.288,96.935 110.526 C 96.933 110.607,96.728 110.867,96.479 111.104 C 95.795 111.753,93.415 115.429,92.402 117.400 C 85.892 130.073,87.453 145.203,96.326 155.424 L 97.655 156.955 93.972 156.955 L 90.289 156.955 90.289 180.052 L 90.289 203.150 96.063 203.150 L 101.837 203.150 101.837 193.768 L 101.837 184.387 104.243 184.460 C 109.224 184.609,110.594 186.148,115.277 196.850 C 116.140 198.823,117.139 201.048,117.498 201.794 L 118.149 203.150 124.499 203.150 L 130.849 203.150 129.051 199.256 C 128.062 197.115,126.568 193.867,125.730 192.038 C 122.885 185.829,120.939 182.990,118.751 181.859 L 118.232 181.591 119.265 181.037 C 123.549 178.741,125.731 175.601,126.086 171.223 L 126.211 169.689 127.279 169.820 C 127.866 169.892,128.780 169.974,129.309 170.002 C 129.838 170.029,130.389 170.094,130.534 170.146 C 131.108 170.350,136.804 170.603,140.832 170.603 C 144.174 170.604,145.075 170.651,145.003 170.822 C 144.838 171.217,134.204 197.571,133.070 200.396 L 131.963 203.154 138.100 203.108 L 144.238 203.062 145.916 198.559 L 147.594 194.056 157.937 194.053 L 168.280 194.051 170.163 198.600 L 172.046 203.150 178.255 203.150 C 183.152 203.150,184.446 203.103,184.379 202.931 C 184.332 202.811,180.848 194.956,176.637 185.477 C 172.426 175.997,168.874 167.989,168.743 167.679 L 168.505 167.117 169.248 166.932 C 170.424 166.638,179.015 163.792,179.790 163.440 C 180.175 163.265,180.923 162.947,181.452 162.734 C 183.345 161.973,187.141 160.222,187.246 160.063 C 187.305 159.973,187.423 159.911,187.509 159.924 C 187.829 159.975,189.309 159.169,189.205 159.001 C 189.143 158.900,189.186 158.881,189.308 158.956 C 189.427 159.030,189.972 158.816,190.572 158.458 C 191.152 158.113,191.661 157.830,191.704 157.830 C 191.991 157.830,194.911 156.023,194.832 155.895 C 194.777 155.807,194.867 155.786,195.033 155.850 C 195.253 155.934,195.295 155.903,195.190 155.733 C 195.093 155.577,195.114 155.543,195.254 155.630 C 195.454 155.753,199.593 153.268,199.866 152.860 C 199.937 152.755,199.996 152.725,199.997 152.795 C 199.999 152.865,201.043 152.193,202.318 151.302 C 205.588 149.018,205.773 148.872,205.653 148.677 C 205.594 148.581,205.627 148.553,205.726 148.614 C 205.931 148.741,207.284 147.724,207.220 147.493 C 207.197 147.411,207.279 147.383,207.402 147.430 C 207.524 147.477,207.853 147.277,208.132 146.986 C 208.411 146.695,208.711 146.457,208.799 146.457 C 209.096 146.457,215.053 141.356,214.950 141.190 C 214.893 141.098,214.951 141.045,215.079 141.072 C 215.222 141.101,215.302 140.968,215.289 140.723 C 215.272 140.400,215.314 140.365,215.517 140.534 C 215.745 140.723,216.703 139.973,217.926 138.646 C 218.027 138.536,218.819 137.833,219.685 137.084 C 220.551 136.335,221.240 135.657,221.216 135.578 C 221.192 135.498,221.250 135.433,221.346 135.433 C 221.625 135.433,222.394 134.695,222.291 134.527 C 222.239 134.443,222.300 134.396,222.428 134.423 C 222.555 134.449,222.640 134.372,222.616 134.252 C 222.592 134.132,222.663 134.033,222.773 134.033 C 222.884 134.033,223.250 133.738,223.588 133.377 C 223.925 133.016,224.799 132.086,225.530 131.311 C 228.021 128.667,228.633 127.997,230.075 126.334 C 230.868 125.420,231.716 124.461,231.961 124.202 C 232.225 123.924,232.352 123.646,232.274 123.519 C 232.197 123.394,232.215 123.351,232.318 123.414 C 232.414 123.474,232.681 123.309,232.911 123.047 C 234.063 121.736,235.171 120.401,235.171 120.324 C 235.171 120.276,235.387 120.001,235.652 119.713 C 235.916 119.425,236.335 118.944,236.581 118.645 L 237.029 118.101 241.918 118.278 C 258.035 118.863,267.459 118.143,273.108 115.898 C 275.485 114.953,276.321 114.329,277.945 112.292 C 278.751 111.281,278.668 111.256,277.485 112.151 C 276.984 112.531,276.043 113.114,275.395 113.448 C 274.747 113.781,274.270 114.113,274.335 114.185 C 274.400 114.258,274.351 114.258,274.227 114.186 C 274.102 114.114,273.874 114.161,273.719 114.289 C 273.564 114.418,273.408 114.497,273.373 114.466 C 273.338 114.434,272.622 114.568,271.782 114.764 C 268.216 115.594,264.982 115.678,257.655 115.132 C 252.607 114.756,244.172 114.411,241.068 114.453 C 238.888 114.482,238.847 114.466,239.462 113.802 C 239.715 113.529,240.354 112.689,240.882 111.936 C 241.773 110.665,244.786 106.520,245.107 106.124 C 245.629 105.481,246.164 104.554,246.086 104.428 C 246.035 104.346,246.070 104.300,246.164 104.326 C 246.258 104.353,247.360 102.898,248.614 101.094 C 249.868 99.289,250.864 97.813,250.827 97.813 C 250.790 97.813,250.933 97.630,251.145 97.407 C 251.357 97.183,251.664 96.809,251.825 96.575 C 251.987 96.342,252.515 95.606,252.999 94.940 C 253.482 94.274,253.830 93.652,253.771 93.557 C 253.712 93.462,253.741 93.432,253.835 93.490 C 253.930 93.548,254.395 93.038,254.869 92.357 C 255.343 91.675,255.849 90.990,255.993 90.834 C 256.316 90.486,257.865 88.521,258.392 87.792 C 258.604 87.498,258.730 87.172,258.670 87.067 C 258.610 86.962,258.626 86.935,258.705 87.006 C 258.887 87.171,259.346 86.802,259.218 86.594 C 259.165 86.509,259.196 86.439,259.287 86.439 C 259.378 86.439,259.913 85.868,260.475 85.171 C 261.037 84.473,261.833 83.520,262.244 83.053 C 262.655 82.586,262.939 82.121,262.877 82.020 C 262.813 81.917,262.846 81.887,262.951 81.952 C 263.054 82.016,263.309 81.851,263.517 81.585 C 263.725 81.320,264.696 80.206,265.674 79.111 C 266.653 78.016,267.432 77.045,267.406 76.955 C 267.380 76.864,267.424 76.830,267.505 76.881 C 267.718 77.012,271.780 72.891,271.616 72.710 C 271.540 72.628,271.566 72.610,271.674 72.671 C 271.910 72.806,272.496 72.205,272.310 72.018 C 272.238 71.946,272.293 71.913,272.433 71.945 C 272.573 71.977,272.691 71.885,272.695 71.741 C 272.700 71.597,272.797 71.479,272.911 71.479 C 273.385 71.479,276.686 68.456,276.514 68.179 C 276.458 68.087,276.503 68.069,276.615 68.138 C 276.727 68.208,277.027 68.100,277.282 67.900 C 277.537 67.699,277.871 67.575,278.024 67.623 C 278.993 67.927,290.250 69.453,294.751 69.889 C 304.930 70.877,314.291 70.704,318.110 69.457 C 320.495 68.678,323.373 66.939,323.075 66.456 C 323.008 66.347,323.035 66.312,323.138 66.375 C 323.385 66.528,323.772 66.034,323.610 65.772 C 323.530 65.642,323.555 65.609,323.676 65.683 C 324.228 66.025,324.997 63.219,324.735 61.816 C 324.548 60.816,323.587 59.260,323.239 59.394 C 323.103 59.446,323.032 59.422,323.083 59.341 C 323.318 58.960,321.267 57.665,319.307 56.957 C 314.233 55.125,306.007 54.889,298.051 56.348 C 295.615 56.795,293.040 57.404,292.810 57.587 C 292.705 57.671,292.580 57.701,292.533 57.654 C 292.188 57.309,283.040 60.586,279.719 62.245 C 278.249 62.979,278.121 63.012,277.445 62.831 C 277.050 62.725,275.121 62.209,273.158 61.684 C 271.195 61.159,269.528 60.767,269.455 60.812 C 269.381 60.857,269.295 60.824,269.263 60.737 C 269.230 60.650,267.590 60.142,265.617 59.607 C 263.644 59.072,260.468 58.197,258.560 57.662 C 256.651 57.127,255.024 56.730,254.944 56.780 C 254.864 56.830,254.772 56.804,254.739 56.724 C 254.707 56.643,253.421 56.241,251.881 55.831 C 250.341 55.420,248.727 54.978,248.294 54.848 C 243.291 53.344,226.241 49.524,225.611 49.766 C 225.469 49.820,225.395 49.797,225.447 49.714 C 225.498 49.632,225.246 49.520,224.887 49.466 C 224.528 49.413,222.502 49.091,220.385 48.752 C 215.422 47.957,211.070 47.472,206.912 47.249 C 203.307 47.056,202.793 47.056,198.338 47.257 M209.189 54.947 C 217.640 55.488,228.442 56.961,238.845 58.993 C 241.047 59.423,241.623 59.483,241.907 59.312 C 242.196 59.138,242.219 59.142,242.037 59.333 C 241.856 59.524,242.243 59.651,244.225 60.051 C 245.548 60.319,247.476 60.737,248.507 60.979 C 249.539 61.222,250.444 61.408,250.519 61.391 C 250.595 61.375,250.774 61.412,250.919 61.473 C 251.147 61.569,258.549 63.350,261.242 63.957 C 261.772 64.076,264.252 64.649,266.754 65.231 C 269.256 65.812,271.845 66.407,272.508 66.553 C 273.170 66.698,273.800 66.913,273.907 67.030 C 274.053 67.189,274.049 67.213,273.892 67.124 C 273.691 67.011,272.406 67.869,270.814 69.181 C 268.503 71.086,267.808 71.719,267.846 71.889 C 267.869 71.993,267.790 72.043,267.671 71.999 C 267.552 71.955,267.100 72.240,266.667 72.632 C 266.234 73.024,265.328 73.828,264.654 74.419 C 261.502 77.185,258.271 80.545,258.491 80.828 C 258.677 81.066,258.667 81.072,258.418 80.878 C 258.168 80.683,257.942 80.863,256.668 82.270 C 255.864 83.158,254.969 84.130,254.681 84.428 C 253.951 85.183,251.537 87.882,250.419 89.193 C 249.907 89.793,249.468 90.423,249.443 90.592 C 249.418 90.762,249.312 90.901,249.206 90.901 C 249.025 90.901,247.769 92.253,247.769 92.449 C 247.769 92.500,247.567 92.763,247.320 93.034 C 245.625 94.894,243.730 97.387,243.883 97.556 C 243.951 97.632,243.917 97.642,243.807 97.579 C 243.619 97.472,243.306 97.918,243.367 98.206 C 243.382 98.279,243.328 98.318,243.246 98.294 C 243.164 98.270,242.810 98.624,242.459 99.081 C 242.109 99.538,241.857 99.913,241.900 99.913 C 241.944 99.913,241.805 100.102,241.593 100.334 C 241.381 100.566,240.989 101.058,240.722 101.427 C 240.455 101.797,239.901 102.533,239.491 103.062 C 237.723 105.346,235.697 108.348,235.806 108.524 C 235.875 108.636,235.844 108.666,235.731 108.596 C 235.527 108.470,235.060 109.152,235.148 109.449 C 235.176 109.545,235.144 109.568,235.076 109.500 C 234.969 109.393,233.754 111.000,231.373 114.394 C 230.910 115.054,230.700 115.205,230.172 115.259 C 226.827 115.602,217.475 119.291,217.961 120.076 C 218.030 120.189,217.994 120.213,217.870 120.136 C 217.606 119.973,215.539 121.497,214.550 122.583 C 213.833 123.371,213.646 124.033,214.098 124.181 C 214.394 124.278,215.777 123.198,215.640 122.977 C 215.574 122.869,215.596 122.828,215.689 122.886 C 215.891 123.010,217.890 121.723,217.761 121.552 C 217.712 121.488,217.722 121.471,217.783 121.516 C 217.843 121.560,218.493 121.290,219.226 120.914 C 221.677 119.660,224.440 118.819,227.013 118.543 C 228.373 118.398,228.384 118.420,227.472 119.510 C 227.087 119.970,226.772 120.388,226.772 120.440 C 226.772 120.491,226.555 120.767,226.290 121.053 C 226.026 121.339,225.652 121.782,225.459 122.036 C 225.267 122.291,224.890 122.735,224.621 123.023 C 224.353 123.310,224.188 123.634,224.255 123.742 C 224.325 123.857,224.298 123.890,224.188 123.822 C 224.085 123.758,223.833 123.923,223.629 124.189 C 223.151 124.810,222.255 125.877,221.697 126.489 C 221.457 126.753,220.961 127.300,220.595 127.704 C 220.220 128.118,219.983 128.525,220.053 128.638 C 220.124 128.753,220.099 128.790,219.995 128.726 C 219.895 128.664,219.476 128.986,219.065 129.442 C 216.659 132.108,211.027 137.913,211.018 137.736 C 211.015 137.672,210.877 137.779,210.712 137.973 C 210.229 138.540,206.204 142.220,204.112 144.009 C 203.053 144.914,202.213 145.736,202.246 145.837 C 202.278 145.937,202.247 145.963,202.178 145.893 C 202.054 145.769,201.483 146.117,200.778 146.748 C 200.580 146.925,200.297 147.148,200.149 147.244 C 199.214 147.851,197.637 149.150,197.630 149.318 C 197.625 149.428,197.519 149.496,197.393 149.469 C 197.079 149.401,196.653 149.779,196.792 150.003 C 196.854 150.103,196.824 150.136,196.726 150.075 C 196.501 149.936,190.008 154.250,190.170 154.430 C 190.235 154.502,190.196 154.509,190.083 154.444 C 189.809 154.287,188.596 155.015,188.741 155.250 C 188.807 155.356,188.772 155.383,188.661 155.314 C 188.429 155.171,186.527 156.207,186.527 156.476 C 186.527 156.579,186.484 156.621,186.433 156.570 C 186.381 156.518,184.905 157.196,183.152 158.077 C 181.399 158.958,179.453 159.905,178.828 160.182 C 178.202 160.460,177.375 160.828,176.990 161.002 C 175.766 161.554,170.728 163.387,169.069 163.883 C 168.075 164.181,167.509 164.434,167.575 164.552 C 167.642 164.672,167.601 164.669,167.464 164.543 C 167.345 164.433,166.521 162.701,165.633 160.693 L 164.018 157.043 157.293 156.999 L 150.569 156.956 148.367 162.424 L 146.165 167.892 140.493 167.883 C 134.803 167.874,133.291 167.774,128.539 167.089 C 126.023 166.727,125.459 166.556,125.459 166.159 C 125.459 165.076,123.100 161.754,121.295 160.295 C 118.139 157.743,115.744 157.120,108.538 156.977 L 103.078 156.868 102.370 156.176 C 101.981 155.796,101.662 155.537,101.662 155.600 C 101.662 155.664,101.298 155.326,100.854 154.851 C 100.409 154.375,99.964 154.037,99.864 154.098 C 99.763 154.160,99.736 154.125,99.802 154.018 C 99.867 153.912,99.407 153.237,98.779 152.517 C 98.151 151.798,97.638 151.128,97.638 151.030 C 97.638 150.931,97.500 150.748,97.332 150.622 C 97.163 150.497,97.005 150.292,96.979 150.168 C 96.954 150.043,96.745 149.644,96.516 149.281 C 91.608 141.507,91.249 128.697,95.692 119.896 C 96.095 119.098,96.370 118.350,96.303 118.234 C 96.236 118.118,96.246 118.081,96.325 118.153 C 96.524 118.333,96.987 117.632,96.833 117.383 C 96.751 117.249,96.787 117.229,96.941 117.325 C 97.110 117.429,97.141 117.387,97.057 117.167 C 96.994 117.002,97.008 116.908,97.088 116.958 C 97.169 117.008,97.342 116.835,97.473 116.573 C 97.603 116.312,97.820 115.965,97.954 115.803 C 98.087 115.640,98.149 115.429,98.090 115.334 C 98.030 115.238,98.074 115.103,98.187 115.033 C 98.315 114.954,98.345 114.982,98.267 115.109 C 98.198 115.220,98.175 115.311,98.215 115.311 C 98.402 115.311,99.711 113.241,99.601 113.119 C 99.532 113.042,99.562 113.029,99.668 113.090 C 99.867 113.203,101.086 111.662,101.001 111.404 C 100.975 111.325,101.031 111.308,101.125 111.366 C 101.220 111.424,101.424 111.278,101.580 111.041 C 102.060 110.308,104.807 107.612,106.737 105.980 C 107.747 105.126,108.559 104.369,108.540 104.299 C 108.521 104.228,108.600 104.170,108.715 104.170 C 108.936 104.170,111.507 102.368,111.607 102.143 C 111.639 102.071,111.736 102.012,111.822 102.012 C 111.909 102.012,112.552 101.631,113.251 101.166 C 113.951 100.700,115.010 100.055,115.606 99.732 C 116.201 99.408,116.642 99.068,116.585 98.976 C 116.528 98.884,116.557 98.855,116.650 98.913 C 116.828 99.023,120.449 97.235,120.316 97.103 C 120.274 97.060,120.410 97.016,120.618 97.004 C 120.827 96.992,122.060 96.513,123.360 95.939 C 126.568 94.522,131.626 92.876,135.521 91.980 C 139.568 91.049,144.712 90.245,144.788 90.531 C 144.816 90.638,144.964 91.553,145.115 92.563 C 145.805 97.160,147.695 101.604,150.669 105.625 C 152.217 107.717,154.222 109.799,154.514 109.618 C 154.640 109.541,154.691 109.553,154.633 109.647 C 154.510 109.846,155.352 110.687,156.430 111.443 C 159.004 113.247,160.368 114.089,160.581 114.008 C 160.730 113.950,160.776 113.991,160.700 114.113 C 160.614 114.253,160.728 114.277,161.085 114.193 C 161.426 114.114,161.511 114.129,161.346 114.239 C 160.879 114.550,166.037 116.833,168.138 117.246 C 169.141 117.443,170.081 117.373,170.076 117.101 C 170.074 116.979,166.903 115.839,166.448 115.797 C 166.328 115.786,166.229 115.724,166.229 115.660 C 166.229 115.511,164.277 114.682,164.077 114.746 C 163.995 114.773,163.978 114.714,164.039 114.615 C 164.138 114.456,164.019 114.404,163.668 114.451 C 163.606 114.459,163.508 114.396,163.449 114.310 C 163.390 114.225,163.027 113.970,162.642 113.745 C 162.257 113.519,161.371 112.948,160.674 112.475 C 159.927 111.969,159.315 111.667,159.186 111.741 C 159.066 111.810,159.027 111.802,159.099 111.722 C 159.229 111.579,158.764 110.936,158.531 110.936 C 158.342 110.936,157.015 109.734,155.751 108.418 C 153.933 106.525,153.485 106.037,153.565 106.037 C 153.606 106.037,153.510 105.841,153.353 105.601 C 153.196 105.361,153.011 105.200,152.941 105.243 C 152.871 105.286,152.814 105.220,152.814 105.097 C 152.814 104.973,152.575 104.524,152.283 104.098 C 150.049 100.844,148.381 95.395,148.381 91.349 L 148.381 89.939 152.800 89.940 C 157.485 89.942,160.994 90.131,164.336 90.560 C 165.460 90.704,166.444 90.808,166.523 90.790 C 166.602 90.772,166.785 90.804,166.929 90.859 C 167.073 90.915,167.979 91.095,168.941 91.259 C 172.923 91.939,178.081 93.451,181.460 94.929 C 182.440 95.358,183.324 95.658,183.424 95.596 C 183.530 95.531,183.554 95.569,183.481 95.686 C 183.413 95.797,183.424 95.888,183.507 95.888 C 183.590 95.888,184.392 96.322,185.290 96.853 C 186.668 97.667,186.967 97.783,187.206 97.596 C 187.450 97.406,187.460 97.413,187.277 97.647 C 187.075 97.907,188.701 99.378,189.874 99.998 C 190.054 100.093,190.201 100.223,190.201 100.288 C 190.201 100.352,190.554 100.769,190.986 101.213 C 191.970 102.225,192.990 103.589,193.611 104.724 C 193.875 105.206,194.180 105.657,194.289 105.728 C 194.399 105.799,194.430 105.858,194.360 105.859 C 194.289 105.861,194.382 106.245,194.566 106.713 C 196.167 110.774,195.606 116.590,193.188 120.995 C 192.805 121.694,192.527 122.315,192.571 122.375 C 192.615 122.436,192.601 122.448,192.540 122.403 C 192.479 122.358,192.034 122.890,191.550 123.584 C 191.067 124.279,190.365 125.184,189.991 125.595 C 189.613 126.011,189.365 126.431,189.433 126.541 C 189.512 126.668,189.476 126.689,189.334 126.601 C 189.191 126.513,188.883 126.706,188.466 127.143 C 188.111 127.516,187.487 128.119,187.079 128.483 C 186.657 128.861,186.390 129.230,186.459 129.342 C 186.534 129.462,186.502 129.489,186.376 129.411 C 186.135 129.262,184.376 130.599,184.564 130.788 C 184.633 130.856,184.611 130.897,184.514 130.877 C 184.112 130.796,183.888 130.895,184.007 131.102 C 184.076 131.223,184.071 131.265,183.994 131.196 C 183.918 131.127,183.117 131.574,182.215 132.191 C 181.313 132.807,180.417 133.361,180.224 133.422 C 180.030 133.483,179.919 133.609,179.975 133.700 C 180.032 133.792,180.014 133.851,179.934 133.832 C 179.688 133.773,178.301 134.413,178.384 134.548 C 178.427 134.618,178.354 134.675,178.222 134.675 C 178.089 134.675,177.443 134.956,176.786 135.299 C 176.128 135.643,175.079 136.136,174.453 136.396 C 173.828 136.656,172.986 137.018,172.582 137.201 C 172.178 137.383,171.760 137.533,171.653 137.533 C 171.546 137.533,171.514 137.624,171.583 137.735 C 171.653 137.849,171.631 137.890,171.532 137.828 C 171.435 137.769,170.188 138.112,168.759 138.591 C 165.929 139.540,160.789 140.874,158.705 141.200 C 157.983 141.313,157.275 141.452,157.130 141.509 C 156.986 141.566,156.818 141.604,156.758 141.592 C 156.697 141.581,155.402 141.726,153.881 141.914 C 144.522 143.075,134.198 141.888,128.259 138.969 C 127.345 138.519,126.518 138.176,126.422 138.207 C 126.325 138.237,126.300 138.209,126.365 138.143 C 126.431 138.078,125.973 137.638,125.349 137.165 C 121.645 134.362,119.584 130.799,119.073 126.319 C 118.922 124.991,118.859 124.851,118.532 125.122 C 117.770 125.755,119.170 132.808,120.058 132.808 C 120.142 132.808,120.190 132.879,120.166 132.965 C 119.902 133.909,125.954 139.822,126.707 139.356 C 126.829 139.280,126.867 139.304,126.799 139.413 C 126.650 139.654,129.764 141.268,130.054 141.101 C 130.174 141.032,130.213 141.041,130.141 141.120 C 129.870 141.419,133.448 142.702,136.736 143.484 C 146.318 145.763,158.891 144.829,170.166 141.000 C 172.666 140.151,173.982 139.570,173.805 139.393 C 173.734 139.322,173.808 139.314,173.968 139.376 C 174.341 139.519,179.561 137.028,179.408 136.780 C 179.348 136.683,179.384 136.657,179.489 136.722 C 179.673 136.835,182.830 135.039,183.047 134.697 C 183.106 134.604,183.209 134.541,183.276 134.557 C 183.343 134.573,183.964 134.167,184.656 133.655 C 185.348 133.142,186.111 132.593,186.352 132.435 C 187.118 131.930,189.132 130.048,189.023 129.939 C 188.965 129.881,189.025 129.834,189.156 129.834 C 189.675 129.834,193.934 124.762,193.934 124.143 C 193.934 124.009,193.983 123.930,194.043 123.967 C 194.227 124.081,195.129 122.322,194.996 122.108 C 194.926 121.993,194.948 121.953,195.048 122.015 C 195.715 122.427,197.509 116.402,197.671 113.208 C 197.774 111.169,197.495 108.231,197.179 108.036 C 197.091 107.982,197.059 107.873,197.107 107.795 C 197.732 106.785,192.323 98.023,191.314 98.411 C 191.163 98.468,191.104 98.434,191.171 98.326 C 191.233 98.226,191.099 97.990,190.873 97.801 C 190.648 97.612,190.289 97.295,190.075 97.097 C 189.861 96.898,189.603 96.787,189.502 96.850 C 189.401 96.913,189.339 96.870,189.366 96.756 C 189.435 96.456,187.018 94.639,186.707 94.758 C 186.566 94.812,186.507 94.799,186.577 94.729 C 186.750 94.557,185.809 93.956,185.575 94.089 C 185.473 94.147,185.451 94.127,185.526 94.045 C 185.757 93.790,183.696 92.722,183.418 92.952 C 183.239 93.101,183.195 93.090,183.236 92.907 C 183.340 92.438,177.011 89.580,176.509 89.869 C 176.389 89.938,176.350 89.929,176.423 89.849 C 176.747 89.492,165.922 86.688,165.572 87.038 C 165.529 87.081,165.310 87.047,165.085 86.961 C 163.718 86.442,154.252 85.831,150.875 86.045 L 148.731 86.180 148.732 85.654 C 148.732 84.907,149.489 82.175,150.223 80.271 C 150.566 79.381,150.868 78.553,150.893 78.432 C 150.919 78.311,151.033 78.118,151.148 78.003 C 151.262 77.889,151.356 77.735,151.356 77.661 C 151.356 77.474,153.265 74.167,153.581 73.808 C 153.723 73.646,153.781 73.417,153.708 73.300 C 153.627 73.167,153.650 73.132,153.770 73.206 C 153.877 73.272,154.058 73.149,154.175 72.931 C 154.291 72.713,154.472 72.449,154.577 72.342 C 154.682 72.236,155.121 71.722,155.552 71.201 C 155.983 70.680,156.888 69.716,157.564 69.058 C 158.240 68.401,158.793 67.771,158.793 67.658 C 158.793 67.546,158.879 67.454,158.985 67.454 C 159.258 67.454,160.815 66.216,160.714 66.080 C 160.668 66.018,160.677 66.001,160.734 66.042 C 160.792 66.083,161.400 65.716,162.086 65.227 C 163.575 64.164,165.871 62.768,167.499 61.935 C 168.348 61.500,168.653 61.256,168.582 61.067 C 168.507 60.868,168.532 60.854,168.688 61.008 C 168.944 61.262,169.962 60.953,169.789 60.673 C 169.726 60.572,169.755 60.538,169.853 60.598 C 170.074 60.735,171.499 60.192,171.388 60.013 C 171.344 59.941,171.405 59.886,171.524 59.890 C 172.042 59.909,172.368 59.833,172.293 59.711 C 172.248 59.639,172.382 59.571,172.589 59.561 C 172.796 59.550,173.635 59.298,174.453 59.001 C 175.697 58.549,179.663 57.343,180.577 57.138 C 185.822 55.966,190.407 55.324,196.675 54.884 C 198.656 54.746,206.668 54.786,209.189 54.947 M314.228 57.321 C 318.116 57.891,322.151 59.702,322.597 61.077 C 323.227 63.017,322.922 64.651,321.720 65.773 C 321.473 66.004,321.320 66.280,321.381 66.386 C 321.441 66.492,321.429 66.523,321.353 66.455 C 321.277 66.386,320.870 66.568,320.448 66.858 C 320.026 67.149,319.446 67.468,319.158 67.568 C 318.870 67.669,318.635 67.813,318.635 67.889 C 318.635 67.965,318.537 68.017,318.416 68.004 C 318.144 67.975,315.668 68.565,315.311 68.744 C 314.326 69.238,305.773 68.885,300.787 68.145 C 297.301 67.627,293.004 66.795,289.003 65.862 C 287.189 65.439,285.622 65.144,285.520 65.207 C 285.418 65.270,285.382 65.245,285.439 65.153 C 285.497 65.060,285.075 64.880,284.500 64.753 C 283.927 64.626,283.419 64.460,283.372 64.384 C 283.249 64.185,284.974 63.137,287.402 61.933 C 288.556 61.360,289.583 60.833,289.683 60.761 C 289.783 60.689,289.980 60.605,290.121 60.574 C 290.261 60.544,291.085 60.255,291.951 59.932 C 296.337 58.299,300.710 57.363,305.774 56.974 C 307.400 56.849,312.412 57.055,314.228 57.321 M200.000 156.678 C 191.636 158.154,187.011 162.765,186.994 169.641 C 186.976 177.201,190.529 180.822,202.100 185.037 C 209.190 187.619,210.958 189.097,210.329 191.910 C 209.791 194.313,207.941 195.188,203.412 195.181 C 198.504 195.173,195.431 194.131,189.703 190.530 C 188.802 189.964,188.034 189.501,187.996 189.501 C 187.958 189.501,187.927 191.732,187.927 194.458 L 187.927 199.415 190.332 200.570 C 206.609 208.383,223.626 201.852,222.218 188.333 C 221.593 182.341,218.011 178.650,209.711 175.447 C 208.556 175.001,206.470 174.195,205.074 173.656 C 199.256 171.406,197.437 169.130,199.570 166.769 C 202.218 163.838,209.055 164.270,217.709 167.913 C 218.938 168.431,220.023 168.854,220.120 168.854 C 220.235 168.854,220.297 167.292,220.297 164.408 L 220.297 159.963 218.943 159.399 C 212.926 156.894,205.124 155.773,200.000 156.678 M332.196 156.539 C 322.613 157.924,317.283 163.591,318.271 171.347 C 319.102 177.877,322.573 181.082,332.896 184.853 C 340.543 187.646,342.354 189.168,341.556 192.130 C 341.010 194.160,339.074 195.112,335.258 195.230 C 330.460 195.378,326.670 194.135,320.936 190.530 C 320.036 189.964,319.267 189.501,319.229 189.501 C 319.191 189.501,319.160 191.732,319.160 194.458 L 319.160 199.415 321.566 200.570 C 332.412 205.776,345.120 204.715,350.656 198.142 C 354.967 193.023,354.407 184.587,349.464 180.212 C 346.992 178.024,344.588 176.788,337.893 174.264 C 331.302 171.779,329.473 170.281,330.175 167.939 C 331.406 163.830,339.068 163.817,348.959 167.907 C 350.219 168.428,351.314 168.854,351.393 168.854 C 351.472 168.854,351.516 166.839,351.490 164.375 L 351.444 159.897 349.956 159.295 C 344.372 157.036,336.842 155.867,332.196 156.539 M46.719 180.052 L 46.719 203.150 52.493 203.150 L 58.268 203.150 58.268 193.701 L 58.268 184.252 68.416 184.252 L 78.565 184.252 78.565 179.965 L 78.565 175.678 68.416 175.678 L 58.268 175.678 58.268 170.516 L 58.268 165.354 68.416 165.354 L 78.565 165.354 78.565 161.155 L 78.565 156.955 62.642 156.955 L 46.719 156.955 46.719 180.052 M230.971 180.052 L 230.971 203.150 248.031 203.150 L 265.092 203.150 265.092 198.950 L 265.092 194.751 253.806 194.751 L 242.520 194.751 242.520 189.151 L 242.520 183.552 253.018 183.552 L 263.517 183.552 263.517 179.353 L 263.517 175.153 253.018 175.153 L 242.520 175.153 242.520 170.254 L 242.520 165.354 253.543 165.354 L 264.567 165.354 264.567 161.155 L 264.567 156.955 247.769 156.955 L 230.971 156.955 230.971 180.052 M275.241 180.052 L 275.241 203.150 281.015 203.150 L 286.789 203.150 286.789 193.771 L 286.789 184.393 289.108 184.456 C 294.091 184.591,295.409 186.089,300.248 197.113 C 301.135 199.134,302.112 201.299,302.418 201.925 L 302.975 203.062 309.318 203.108 C 312.806 203.133,315.661 203.123,315.661 203.086 C 315.661 203.049,315.220 202.083,314.682 200.941 C 314.144 199.798,312.955 197.209,312.040 195.188 C 307.949 186.157,306.166 183.288,303.884 182.069 C 303.049 181.622,303.017 181.677,304.692 180.703 C 315.542 174.397,311.799 159.304,298.863 157.199 C 297.709 157.011,294.896 156.957,286.308 156.956 L 275.241 156.955 275.241 180.052 M110.816 165.877 C 115.174 167.242,115.528 173.361,111.359 175.270 C 110.116 175.839,108.181 176.052,104.812 175.992 L 101.925 175.941 101.878 170.868 C 101.853 168.079,101.874 165.685,101.927 165.549 C 102.089 165.124,109.258 165.389,110.816 165.877 M295.276 165.758 C 297.864 166.474,299.042 168.040,299.034 170.757 C 299.023 174.625,297.070 175.835,290.595 175.983 L 286.789 176.070 286.789 170.686 L 286.789 165.301 290.595 165.408 C 292.973 165.475,294.729 165.606,295.276 165.758 M159.524 173.053 C 160.341 175.026,161.871 178.719,162.923 181.260 C 163.975 183.800,164.807 185.907,164.772 185.942 C 164.737 185.977,161.559 185.985,157.709 185.960 L 150.709 185.914 153.743 177.865 C 155.412 173.438,156.817 169.713,156.865 169.586 C 156.919 169.447,157.165 169.378,157.495 169.411 C 158.026 169.465,158.070 169.544,159.524 173.053 M95.451 224.774 C 84.834 226.283,79.166 236.456,83.747 245.779 C 89.199 256.873,107.537 255.785,111.644 244.123 C 115.305 233.728,106.498 223.204,95.451 224.774 M129.484 224.861 C 124.422 225.520,121.471 230.131,123.190 234.695 C 123.907 236.597,125.512 238.080,129.396 240.427 C 133.430 242.864,134.733 244.287,134.733 246.255 C 134.733 250.719,128.431 251.291,124.142 247.217 L 122.835 245.975 122.835 248.493 L 122.835 251.012 123.753 251.613 C 130.022 255.718,137.999 253.061,138.533 246.692 C 138.858 242.818,137.129 240.317,132.020 237.270 C 127.559 234.610,126.509 233.526,126.509 231.583 C 126.509 227.938,132.436 227.264,136.467 230.450 C 136.951 230.833,137.389 231.146,137.440 231.146 C 137.491 231.146,137.533 230.163,137.533 228.961 L 137.533 226.776 136.831 226.333 C 134.902 225.115,131.998 224.534,129.484 224.861 M149.563 225.123 C 149.490 225.196,149.431 231.541,149.431 239.224 L 149.431 253.193 151.441 253.193 L 153.451 253.193 153.497 247.113 L 153.543 241.032 157.043 240.924 C 162.706 240.750,164.910 239.748,166.406 236.666 C 168.648 232.050,166.461 227.045,161.505 225.451 C 160.481 225.121,149.853 224.829,149.563 225.123 M192.126 226.859 L 192.126 228.696 196.938 228.696 L 201.750 228.696 201.750 240.945 L 201.750 253.193 203.762 253.193 L 205.774 253.193 205.774 240.945 L 205.774 228.696 210.674 228.696 L 215.573 228.696 215.573 226.859 L 215.573 225.022 203.850 225.022 L 192.126 225.022 192.126 226.859 M229.436 228.303 C 222.702 244.049,218.898 252.997,218.898 253.086 C 218.898 253.145,219.823 253.191,220.954 253.189 L 223.010 253.185 224.704 249.121 L 226.399 245.057 232.427 245.011 L 238.455 244.965 240.295 249.035 L 242.135 253.106 244.186 253.155 C 246.084 253.201,246.231 253.181,246.148 252.893 C 246.099 252.721,243.403 246.636,240.157 239.370 C 236.911 232.104,234.145 225.903,234.011 225.591 L 233.766 225.022 232.303 225.022 L 230.839 225.022 229.436 228.303 M297.638 226.859 L 297.638 228.696 302.450 228.696 L 307.262 228.696 307.262 240.945 L 307.262 253.193 309.274 253.193 L 311.286 253.193 311.286 240.945 L 311.286 228.696 316.185 228.696 L 321.085 228.696 321.085 226.859 L 321.085 225.022 309.361 225.022 L 297.638 225.022 297.638 226.859 M46.719 239.195 L 46.719 253.193 48.729 253.193 L 50.739 253.193 50.785 247.113 L 50.831 241.032 58.661 240.987 L 66.492 240.941 66.492 247.067 L 66.492 253.193 68.504 253.193 L 70.516 253.193 70.516 239.195 L 70.516 225.197 68.504 225.197 L 66.492 225.197 66.492 231.235 L 66.492 237.274 58.661 237.228 L 50.831 237.183 50.785 231.190 L 50.739 225.197 48.729 225.197 L 46.719 225.197 46.719 239.195 M177.428 239.195 L 177.428 253.193 179.440 253.193 L 181.452 253.193 181.452 239.195 L 181.452 225.197 179.440 225.197 L 177.428 225.197 177.428 239.195 M256.168 239.195 L 256.168 253.193 264.479 253.193 L 272.791 253.193 272.791 251.356 L 272.791 249.519 266.492 249.519 L 260.192 249.519 260.192 237.358 L 260.192 225.197 258.180 225.197 L 256.168 225.197 256.168 239.195 M283.115 239.195 L 283.115 253.193 285.127 253.193 L 287.139 253.193 287.139 239.195 L 287.139 225.197 285.127 225.197 L 283.115 225.197 283.115 239.195 M328.674 225.328 C 328.721 225.400,331.046 228.373,333.842 231.934 L 338.926 238.408 338.929 245.801 L 338.933 253.193 340.945 253.193 L 342.957 253.193 342.965 245.801 L 342.973 238.408 347.793 232.283 C 350.444 228.915,352.769 225.943,352.959 225.678 L 353.305 225.197 350.864 225.197 L 348.423 225.197 344.707 229.929 C 342.664 232.532,340.931 234.638,340.856 234.610 C 340.782 234.581,339.091 232.452,337.098 229.878 L 333.476 225.197 331.032 225.197 C 329.688 225.197,328.627 225.256,328.674 225.328 M100.612 228.968 C 109.878 231.735,111.073 244.526,102.450 248.640 C 92.661 253.310,82.845 243.667,87.666 234.116 C 89.838 229.814,95.675 227.493,100.612 228.968 M159.729 228.882 C 161.912 229.350,163.000 230.752,162.982 233.071 C 162.956 236.311,161.478 237.311,156.562 237.414 L 153.456 237.479 153.456 233.088 L 153.456 228.696 156.159 228.696 C 157.646 228.696,159.253 228.780,159.729 228.882 M234.557 236.330 L 236.729 241.207 232.512 241.254 C 230.192 241.280,228.260 241.267,228.219 241.226 C 228.177 241.184,228.984 239.116,230.012 236.629 C 231.040 234.143,231.954 231.920,232.043 231.691 C 232.264 231.123,232.124 230.865,234.557 236.330 " stroke="none" fill="#5f4e48" fill-rule="evenodd"></path><path id="path1" d="M0.000 149.606 L 0.000 299.213 200.000 299.213 L 400.000 299.213 400.000 149.606 L 400.000 0.000 200.000 0.000 L 0.000 0.000 0.000 149.606 M210.236 47.332 C 221.613 48.330,235.161 51.073,253.018 55.994 C 265.093 59.322,275.265 62.116,276.606 62.473 L 278.059 62.861 280.172 61.861 C 301.103 51.959,328.701 53.667,324.588 64.610 C 322.423 70.370,312.187 71.966,291.864 69.714 C 288.144 69.302,279.144 68.044,278.176 67.800 C 277.565 67.647,275.096 69.770,270.243 74.620 C 263.023 81.836,255.928 90.667,247.673 102.712 C 246.914 103.819,245.548 105.748,244.636 106.999 C 243.725 108.250,242.177 110.387,241.197 111.747 L 239.416 114.221 243.811 114.339 C 249.277 114.485,253.870 114.711,258.180 115.045 C 268.255 115.827,273.576 114.963,277.596 111.895 C 279.036 110.796,279.010 111.278,277.535 113.036 C 273.660 117.656,264.322 119.056,241.645 118.417 L 237.008 118.286 236.004 119.577 C 218.214 142.454,192.996 160.613,170.604 166.672 C 169.593 166.945,168.737 167.190,168.702 167.216 C 168.647 167.256,173.829 179.028,177.780 187.839 C 178.428 189.283,179.688 192.117,180.581 194.138 C 181.473 196.159,182.743 199.020,183.403 200.496 C 184.062 201.972,184.602 203.212,184.602 203.252 C 184.602 203.292,181.778 203.325,178.326 203.325 L 172.051 203.325 171.079 201.006 C 170.544 199.731,169.692 197.684,169.184 196.457 L 168.262 194.226 157.967 194.226 L 147.673 194.226 147.484 194.707 C 147.380 194.972,146.605 196.999,145.763 199.213 L 144.232 203.237 138.083 203.283 C 133.945 203.314,131.934 203.270,131.934 203.149 C 131.934 203.049,132.831 200.745,133.929 198.028 C 142.790 176.087,144.764 171.183,144.826 170.954 C 144.889 170.725,144.197 170.688,139.422 170.666 C 134.366 170.643,127.418 170.174,126.412 169.788 C 126.207 169.710,126.159 169.918,126.157 170.891 C 126.148 175.061,123.489 179.013,119.248 181.163 L 118.455 181.565 119.446 182.248 C 120.696 183.109,121.857 184.499,123.124 186.653 C 123.955 188.064,130.547 202.058,130.833 203.018 C 130.919 203.306,130.537 203.325,124.510 203.325 L 118.096 203.325 117.600 202.231 C 117.328 201.629,116.850 200.586,116.538 199.913 C 116.226 199.239,115.460 197.507,114.836 196.063 C 110.654 186.392,109.158 184.750,104.418 184.634 L 102.012 184.575 102.012 193.950 L 102.012 203.325 96.150 203.325 L 90.289 203.325 90.289 180.140 L 90.289 156.955 93.912 156.955 L 97.536 156.955 96.831 156.212 C 87.654 146.531,85.649 130.840,91.951 118.023 C 99.752 102.159,120.533 89.332,142.884 86.586 L 144.532 86.383 144.532 85.367 C 144.532 83.675,145.041 80.574,145.687 78.328 C 150.722 60.824,170.237 48.885,196.588 47.189 C 199.343 47.011,207.564 47.097,210.236 47.332 M194.751 55.132 C 169.355 57.154,152.305 68.144,149.033 84.602 L 148.789 85.827 154.141 85.937 C 188.913 86.652,207.788 106.292,192.776 126.138 C 179.256 144.012,142.317 150.895,125.211 138.728 C 120.701 135.520,117.796 130.301,118.149 126.041 C 118.308 124.131,118.943 124.439,119.259 126.579 C 121.068 138.813,135.396 144.597,156.168 141.476 C 194.748 135.680,209.478 105.398,179.178 94.172 C 171.391 91.288,159.492 89.555,150.706 90.025 L 148.366 90.150 148.476 91.663 C 149.296 102.922,157.271 112.726,168.544 116.336 C 170.250 116.883,170.507 117.087,169.898 117.414 C 168.180 118.333,159.759 114.427,155.104 110.551 C 149.666 106.023,145.555 98.519,144.795 91.732 C 144.649 90.426,144.782 90.455,141.382 90.980 C 122.583 93.884,105.759 103.668,97.853 116.294 C 89.531 129.587,91.321 146.095,102.132 155.748 L 103.484 156.955 108.442 156.955 C 117.944 156.955,122.422 159.166,125.180 165.217 L 125.774 166.522 127.585 166.815 C 132.590 167.623,141.009 168.154,144.333 167.871 L 146.147 167.717 147.527 164.304 C 148.286 162.428,149.271 160.007,149.715 158.924 L 150.523 156.955 157.290 156.955 L 164.057 156.955 165.683 160.619 C 166.637 162.769,167.393 164.256,167.513 164.220 C 189.185 157.577,207.645 143.847,226.758 120.156 C 228.090 118.505,228.078 118.487,225.892 118.864 C 221.816 119.567,219.061 120.835,214.952 123.898 C 213.731 124.809,213.201 124.112,214.113 122.795 C 215.923 120.183,222.879 116.648,228.521 115.473 C 229.532 115.263,230.448 115.067,230.557 115.039 C 230.744 114.990,232.517 112.573,237.095 106.124 C 248.193 90.491,260.140 77.359,270.987 68.872 L 273.470 66.929 271.687 66.520 C 270.706 66.295,265.413 65.059,259.923 63.773 C 237.846 58.601,228.332 56.891,213.123 55.361 C 209.910 55.038,197.829 54.887,194.751 55.132 M304.112 57.220 C 298.280 57.827,292.510 59.513,287.314 62.128 C 285.404 63.089,283.231 64.378,283.504 64.387 C 283.574 64.390,284.558 64.632,285.691 64.925 C 308.131 70.725,322.877 69.880,322.831 62.797 C 322.805 58.850,313.911 56.200,304.112 57.220 M208.012 156.441 C 211.429 156.815,214.452 157.592,218.416 159.115 L 220.297 159.838 220.297 164.433 C 220.297 166.961,220.257 169.029,220.208 169.029 C 220.159 169.029,219.313 168.685,218.327 168.264 C 207.757 163.755,198.950 163.897,198.950 168.577 C 198.950 170.820,200.529 171.901,207.787 174.626 C 218.680 178.717,222.282 182.474,222.297 189.764 C 222.315 198.597,215.591 203.855,204.287 203.845 C 198.614 203.840,195.474 203.122,190.332 200.653 L 187.752 199.414 187.752 194.370 C 187.752 191.596,187.794 189.326,187.845 189.326 C 187.897 189.326,188.677 189.796,189.578 190.370 C 199.423 196.634,210.236 197.064,210.236 191.191 C 210.236 188.650,208.442 187.323,201.925 185.047 C 191.075 181.256,187.219 177.469,186.923 170.311 C 186.533 160.862,195.357 155.058,208.012 156.441 M341.557 156.759 C 344.000 157.190,346.624 157.935,349.081 158.893 C 350.092 159.287,351.056 159.651,351.225 159.702 C 351.508 159.789,351.741 169.029,351.459 169.029 C 351.420 169.029,350.455 168.630,349.316 168.142 C 340.296 164.278,332.548 163.888,330.608 167.198 C 329.030 169.891,330.921 171.607,338.583 174.438 C 349.444 178.451,353.236 182.172,353.577 189.151 C 354.020 198.238,347.085 203.854,335.433 203.845 C 329.787 203.841,326.642 203.098,321.216 200.484 L 318.985 199.409 318.985 194.368 C 318.985 191.595,319.032 189.326,319.089 189.326 C 319.145 189.326,320.031 189.855,321.057 190.501 C 330.857 196.672,341.470 197.016,341.470 191.164 C 341.470 188.501,340.253 187.650,332.196 184.676 C 323.090 181.315,319.537 178.224,318.389 172.666 C 316.087 161.523,326.818 154.155,341.557 156.759 M78.565 161.242 L 78.565 165.529 68.416 165.529 L 58.268 165.529 58.268 170.604 L 58.268 175.678 68.416 175.678 L 78.565 175.678 78.565 179.965 L 78.565 184.252 68.416 184.252 L 58.268 184.252 58.268 193.788 L 58.268 203.325 52.406 203.325 L 46.544 203.325 46.544 180.140 L 46.544 156.955 62.555 156.955 L 78.565 156.955 78.565 161.242 M264.567 161.242 L 264.567 165.529 253.543 165.529 L 242.520 165.529 242.520 170.252 L 242.520 174.975 253.062 175.021 L 263.605 175.066 263.651 179.396 L 263.698 183.727 253.109 183.727 L 242.520 183.727 242.520 189.151 L 242.520 194.576 253.806 194.576 L 265.092 194.576 265.092 198.950 L 265.092 203.325 247.944 203.325 L 230.796 203.325 230.796 180.140 L 230.796 156.955 247.682 156.955 L 264.567 156.955 264.567 161.242 M300.678 157.449 C 312.371 160.822,314.910 174.747,304.916 180.695 L 303.395 181.599 304.147 182.123 C 306.471 183.741,308.043 186.210,311.237 193.263 C 312.021 194.996,313.377 197.945,314.249 199.817 C 315.122 201.689,315.836 203.245,315.836 203.273 C 315.836 203.301,312.941 203.325,309.403 203.325 L 302.970 203.325 302.290 201.881 C 301.915 201.087,300.884 198.784,299.997 196.763 C 295.364 186.203,294.087 184.757,289.283 184.633 L 286.789 184.569 286.789 193.947 L 286.789 203.325 280.927 203.325 L 275.066 203.325 275.066 180.133 L 275.066 156.942 287.183 156.997 C 299.179 157.051,299.314 157.056,300.678 157.449 M102.012 170.689 L 102.012 175.882 105.993 175.816 C 112.236 175.714,114.144 174.512,114.115 170.701 C 114.086 166.735,112.421 165.683,105.993 165.568 L 102.012 165.496 102.012 170.689 M286.789 170.691 L 286.789 175.882 290.770 175.813 C 297.223 175.702,299.323 174.259,298.994 170.164 C 298.713 166.659,296.963 165.682,290.770 165.571 L 286.789 165.501 286.789 170.691 M156.360 171.172 C 156.018 172.063,154.639 175.704,153.298 179.265 L 150.858 185.739 157.696 185.785 C 161.457 185.810,164.565 185.800,164.602 185.762 C 164.664 185.700,161.685 178.420,158.060 169.773 C 157.715 168.950,156.983 169.552,156.360 171.172 M100.637 224.949 C 106.133 225.991,110.356 229.723,112.014 235.003 C 112.556 236.731,112.607 241.218,112.104 243.045 C 108.152 257.400,85.486 256.970,82.516 242.483 C 80.275 231.554,89.318 222.803,100.637 224.949 M134.471 225.193 C 135.144 225.406,136.109 225.815,136.614 226.101 L 137.533 226.622 137.533 228.972 C 137.533 231.393,137.471 231.586,136.904 230.944 C 133.893 227.542,126.956 227.832,126.556 231.377 C 126.350 233.206,127.522 234.459,131.910 237.102 C 134.036 238.382,135.283 239.262,136.058 240.028 C 139.921 243.848,139.273 250.352,134.803 252.633 C 131.784 254.173,127.030 253.782,123.822 251.730 L 122.835 251.098 122.835 248.465 L 122.835 245.832 124.061 247.059 C 128.073 251.071,134.614 250.667,134.640 246.406 C 134.652 244.376,133.375 242.920,129.556 240.609 C 123.949 237.217,122.740 235.706,122.755 232.108 C 122.779 226.515,128.316 223.246,134.471 225.193 M240.088 239.018 C 243.543 246.764,246.369 253.164,246.369 253.241 C 246.369 253.317,245.411 253.357,244.239 253.330 L 242.109 253.281 240.258 249.131 L 238.408 244.981 232.458 244.977 L 226.509 244.972 225.295 247.902 C 224.626 249.513,223.824 251.402,223.511 252.100 L 222.942 253.368 220.821 253.368 C 218.318 253.368,218.408 253.820,220.128 249.869 C 220.778 248.377,223.453 242.134,226.073 235.995 L 230.836 224.834 232.321 224.884 L 233.807 224.934 240.088 239.018 M50.919 231.059 L 50.919 237.095 58.705 237.095 L 66.492 237.095 66.492 231.059 L 66.492 225.022 68.591 225.022 L 70.691 225.022 70.691 239.195 L 70.691 253.368 68.591 253.368 L 66.492 253.368 66.492 247.244 L 66.492 241.120 58.705 241.120 L 50.919 241.120 50.919 247.244 L 50.919 253.368 48.819 253.368 L 46.719 253.368 46.719 239.195 L 46.719 225.022 48.819 225.022 L 50.919 225.022 50.919 231.059 M161.139 225.291 C 165.695 226.365,168.216 230.625,167.017 235.227 C 165.926 239.416,162.758 241.116,156.037 241.119 L 153.631 241.120 153.631 247.244 L 153.631 253.368 151.531 253.368 L 149.431 253.368 149.431 239.195 L 149.431 225.022 154.724 225.024 C 158.826 225.026,160.270 225.087,161.139 225.291 M181.585 239.151 L 181.540 253.281 179.484 253.330 L 177.428 253.379 177.428 239.201 L 177.428 225.022 179.529 225.022 L 181.629 225.022 181.585 239.151 M215.573 226.859 L 215.573 228.696 210.674 228.696 L 205.774 228.696 205.774 241.038 L 205.774 253.379 203.718 253.330 L 201.662 253.281 201.617 240.989 L 201.572 228.696 196.762 228.696 L 191.951 228.696 191.951 226.859 L 191.951 225.022 203.762 225.022 L 215.573 225.022 215.573 226.859 M260.192 237.270 L 260.192 249.519 266.492 249.519 L 272.791 249.519 272.791 251.444 L 272.791 253.368 264.392 253.368 L 255.993 253.368 255.993 239.195 L 255.993 225.022 258.093 225.022 L 260.192 225.022 260.192 237.270 M287.139 239.195 L 287.139 253.368 285.039 253.368 L 282.940 253.368 282.940 239.195 L 282.940 225.022 285.039 225.022 L 287.139 225.022 287.139 239.195 M321.260 226.859 L 321.260 228.696 316.362 228.696 L 311.463 228.696 311.419 240.989 L 311.374 253.281 309.318 253.330 L 307.262 253.379 307.262 241.038 L 307.262 228.696 302.362 228.696 L 297.463 228.696 297.463 226.859 L 297.463 225.022 309.361 225.022 L 321.260 225.022 321.260 226.859 M337.160 229.837 L 340.890 234.653 342.372 232.768 C 343.187 231.732,344.892 229.565,346.161 227.953 L 348.469 225.023 350.962 225.022 C 352.334 225.022,353.456 225.061,353.456 225.108 C 353.456 225.156,351.133 228.156,348.294 231.775 L 343.132 238.355 343.132 245.867 L 343.132 253.379 340.989 253.330 L 338.845 253.281 338.800 245.798 L 338.754 238.316 333.713 231.888 C 330.941 228.352,328.614 225.361,328.543 225.241 C 328.442 225.070,328.963 225.022,330.922 225.022 L 333.431 225.022 337.160 229.837 M94.474 228.963 C 87.794 230.585,84.517 238.090,87.778 244.297 C 91.656 251.677,103.485 251.446,107.117 243.920 C 111.150 235.562,103.681 226.727,94.474 228.963 M153.631 233.071 L 153.631 237.445 155.599 237.440 C 161.054 237.425,162.905 236.296,162.905 232.983 C 162.905 229.758,161.185 228.696,155.961 228.696 L 153.631 228.696 153.631 233.071 M232.069 231.802 C 232.006 231.971,231.110 234.156,230.078 236.658 L 228.203 241.207 232.325 241.254 C 234.592 241.280,236.486 241.263,236.533 241.216 C 236.620 241.129,232.378 231.496,232.253 231.496 C 232.216 231.496,232.133 231.634,232.069 231.802 " stroke="none" fill="#fbfbfb" fill-rule="evenodd"></path><path id="path2" d="M199.784 47.196 C 200.099 47.235,200.571 47.234,200.834 47.194 C 201.097 47.154,200.840 47.122,200.262 47.123 C 199.685 47.124,199.470 47.157,199.784 47.196 M205.293 47.194 C 205.558 47.235,205.991 47.235,206.255 47.194 C 206.520 47.154,206.304 47.122,205.774 47.122 C 205.245 47.122,205.028 47.154,205.293 47.194 M197.682 54.892 C 197.898 54.933,198.252 54.933,198.469 54.892 C 198.685 54.850,198.508 54.816,198.075 54.816 C 197.642 54.816,197.465 54.850,197.682 54.892 M206.430 54.892 C 206.647 54.933,207.001 54.933,207.218 54.892 C 207.434 54.850,207.257 54.816,206.824 54.816 C 206.391 54.816,206.214 54.850,206.430 54.892 M305.731 55.414 C 305.899 55.458,306.175 55.458,306.343 55.414 C 306.511 55.370,306.374 55.334,306.037 55.334 C 305.700 55.334,305.562 55.370,305.731 55.414 M310.105 55.414 C 310.273 55.458,310.549 55.458,310.717 55.414 C 310.886 55.370,310.748 55.334,310.411 55.334 C 310.074 55.334,309.937 55.370,310.105 55.414 M307.393 56.997 C 307.898 57.032,308.725 57.032,309.230 56.997 C 309.735 56.962,309.322 56.933,308.311 56.933 C 307.301 56.933,306.888 56.962,307.393 56.997 M322.806 58.849 C 323.016 59.073,323.128 59.322,323.055 59.402 C 322.982 59.483,323.026 59.488,323.154 59.415 C 323.367 59.292,322.805 58.443,322.511 58.443 C 322.463 58.443,322.596 58.626,322.806 58.849 M159.791 59.109 C 159.414 59.400,159.411 59.418,159.739 59.418 C 159.931 59.418,160.053 59.383,160.011 59.340 C 159.968 59.297,160.021 59.157,160.128 59.027 C 160.392 58.709,160.273 58.738,159.791 59.109 M158.355 60.208 C 158.018 60.501,157.901 60.663,158.095 60.570 C 158.414 60.416,159.207 59.661,159.038 59.672 C 159.000 59.675,158.692 59.916,158.355 60.208 M156.767 61.528 C 156.363 61.967,156.361 61.977,156.733 61.750 C 156.948 61.619,157.162 61.412,157.209 61.290 C 157.334 60.963,157.241 61.014,156.767 61.528 M322.875 62.817 C 322.875 63.154,322.911 63.292,322.955 63.123 C 322.999 62.955,322.999 62.679,322.955 62.511 C 322.911 62.343,322.875 62.480,322.875 62.817 M154.501 63.646 C 153.878 64.295,153.649 64.569,153.992 64.256 C 154.335 63.942,154.670 63.727,154.736 63.776 C 154.802 63.826,154.815 63.813,154.765 63.747 C 154.715 63.681,154.928 63.366,155.237 63.047 C 155.546 62.728,155.762 62.467,155.716 62.467 C 155.670 62.467,155.123 62.998,154.501 63.646 M323.097 66.463 C 323.146 66.511,323.048 66.715,322.880 66.915 C 322.658 67.180,322.705 67.164,323.055 66.855 C 323.616 66.358,323.609 66.375,323.272 66.375 C 323.128 66.375,323.049 66.415,323.097 66.463 M159.407 67.277 C 159.288 67.420,159.126 67.498,159.047 67.449 C 158.969 67.401,158.858 67.435,158.802 67.527 C 158.567 67.907,159.036 67.847,159.410 67.449 C 159.633 67.211,159.773 67.017,159.719 67.017 C 159.666 67.017,159.526 67.134,159.407 67.277 M157.207 69.335 L 156.693 69.904 157.262 69.390 C 157.574 69.107,157.830 68.851,157.830 68.821 C 157.830 68.686,157.686 68.805,157.207 69.335 M298.381 70.287 C 298.550 70.331,298.825 70.331,298.994 70.287 C 299.162 70.243,299.024 70.207,298.688 70.207 C 298.351 70.207,298.213 70.243,298.381 70.287 M301.356 70.462 C 301.524 70.506,301.800 70.506,301.969 70.462 C 302.137 70.418,301.999 70.382,301.662 70.382 C 301.325 70.382,301.188 70.418,301.356 70.462 M307.130 70.646 C 307.972 70.679,309.350 70.679,310.192 70.646 C 311.035 70.614,310.346 70.588,308.661 70.588 C 306.977 70.588,306.288 70.614,307.130 70.646 M267.621 71.703 C 267.135 72.157,266.913 72.382,267.127 72.204 C 267.356 72.013,267.611 71.934,267.747 72.013 C 267.875 72.087,267.919 72.081,267.845 72.000 C 267.772 71.919,267.924 71.631,268.184 71.359 C 268.918 70.594,268.600 70.788,267.621 71.703 M273.410 71.209 C 273.239 71.398,273.014 71.536,272.909 71.515 C 272.805 71.495,272.712 71.597,272.703 71.741 C 272.695 71.885,272.606 71.988,272.506 71.969 C 272.406 71.951,272.324 72.049,272.324 72.188 C 272.324 72.512,272.251 72.560,273.141 71.654 C 273.566 71.220,273.870 70.866,273.817 70.866 C 273.764 70.866,273.580 71.020,273.410 71.209 M265.518 73.535 L 265.004 74.103 265.616 73.578 C 265.952 73.290,266.261 73.034,266.301 73.010 C 266.342 72.986,266.298 72.966,266.204 72.966 C 266.109 72.966,265.801 73.222,265.518 73.535 M264.071 74.847 L 263.414 75.503 264.034 74.979 C 264.375 74.690,264.729 74.395,264.821 74.322 C 264.912 74.250,264.929 74.191,264.858 74.191 C 264.787 74.191,264.433 74.486,264.071 74.847 M268.072 76.548 C 267.848 76.785,267.579 76.930,267.472 76.869 C 267.366 76.809,267.340 76.826,267.413 76.907 C 267.487 76.988,267.291 77.336,266.978 77.679 C 266.664 78.022,266.899 77.833,267.500 77.258 C 268.100 76.684,268.591 76.192,268.591 76.165 C 268.591 76.041,268.447 76.147,268.072 76.548 M259.578 79.128 C 258.328 80.400,257.507 81.267,257.753 81.054 C 258.117 80.740,258.247 80.708,258.453 80.885 C 258.665 81.068,258.670 81.062,258.483 80.846 C 258.297 80.630,258.561 80.289,260.143 78.702 C 261.177 77.664,261.985 76.815,261.937 76.815 C 261.889 76.815,260.827 77.856,259.578 79.128 M265.346 79.484 L 264.654 80.227 265.398 79.536 C 265.807 79.155,266.142 78.821,266.142 78.792 C 266.142 78.660,265.989 78.792,265.346 79.484 M255.315 83.548 C 254.918 83.979,254.593 84.389,254.593 84.458 C 254.593 84.528,254.661 84.510,254.744 84.418 C 255.648 83.418,256.193 82.765,256.123 82.765 C 256.076 82.765,255.713 83.117,255.315 83.548 M261.844 83.508 L 261.330 84.077 261.899 83.563 C 262.211 83.280,262.467 83.024,262.467 82.994 C 262.467 82.859,262.323 82.978,261.844 83.508 M144.573 85.214 C 144.573 85.551,144.609 85.689,144.653 85.521 C 144.697 85.352,144.697 85.077,144.653 84.908 C 144.609 84.740,144.573 84.878,144.573 85.214 M150.702 86.040 C 150.968 86.080,151.362 86.079,151.577 86.037 C 151.792 85.996,151.575 85.963,151.094 85.964 C 150.612 85.966,150.436 86.000,150.702 86.040 M155.162 86.038 C 155.378 86.079,155.733 86.079,155.949 86.038 C 156.166 85.996,155.989 85.962,155.556 85.962 C 155.122 85.962,154.945 85.996,155.162 86.038 M144.182 86.439 C 143.822 86.555,143.806 86.582,144.094 86.594 C 144.287 86.602,144.563 86.532,144.707 86.439 C 145.013 86.241,144.801 86.241,144.182 86.439 M252.220 87.008 L 251.706 87.577 252.275 87.063 C 252.805 86.584,252.924 86.439,252.789 86.439 C 252.759 86.439,252.503 86.695,252.220 87.008 M157.349 90.059 C 157.517 90.103,157.793 90.103,157.962 90.059 C 158.130 90.015,157.992 89.979,157.655 89.979 C 157.318 89.979,157.181 90.015,157.349 90.059 M249.093 90.625 C 248.804 90.946,248.804 90.960,249.095 90.917 C 249.264 90.892,249.421 90.741,249.445 90.580 C 249.499 90.210,249.465 90.214,249.093 90.625 M246.193 94.182 C 245.679 94.835,245.667 94.872,246.092 94.488 C 246.533 94.090,246.999 93.438,246.842 93.438 C 246.807 93.438,246.515 93.773,246.193 94.182 M240.769 101.181 C 240.512 101.533,240.469 101.655,240.659 101.502 C 240.945 101.269,241.379 100.612,241.246 100.612 C 241.213 100.612,240.998 100.868,240.769 101.181 M239.719 102.581 C 239.462 102.933,239.420 103.055,239.609 102.902 C 239.896 102.669,240.329 102.012,240.197 102.012 C 240.163 102.012,239.948 102.268,239.719 102.581 M102.353 104.571 C 102.021 104.919,101.907 105.108,102.100 104.991 C 102.416 104.799,103.166 103.937,103.017 103.937 C 102.983 103.937,102.684 104.222,102.353 104.571 M105.206 107.257 C 104.554 107.862,104.338 108.136,104.513 108.136 C 104.541 108.136,104.912 107.782,105.337 107.349 C 106.290 106.378,106.211 106.323,105.206 107.257 M154.785 107.464 C 155.296 108.042,156.671 109.398,157.236 109.881 C 157.515 110.119,157.036 109.588,156.172 108.700 C 154.734 107.223,153.974 106.546,154.785 107.464 M98.716 108.195 C 98.351 108.571,98.242 108.778,98.409 108.778 C 98.552 108.778,98.653 108.693,98.634 108.589 C 98.615 108.484,98.718 108.425,98.863 108.457 C 99.007 108.489,99.066 108.456,98.993 108.384 C 98.921 108.312,98.992 108.108,99.152 107.932 C 99.656 107.375,99.306 107.586,98.716 108.195 M102.406 110.076 C 101.737 110.716,101.560 110.936,101.713 110.936 C 101.741 110.936,102.112 110.582,102.537 110.149 C 103.500 109.168,103.409 109.117,102.406 110.076 M154.619 110.089 C 154.880 110.360,155.133 110.542,155.182 110.493 C 155.232 110.444,155.098 110.281,154.886 110.133 C 154.674 109.984,154.537 109.802,154.583 109.728 C 154.628 109.655,154.548 109.595,154.406 109.595 C 154.227 109.595,154.293 109.748,154.619 110.089 M156.430 111.509 C 156.430 111.543,156.686 111.758,156.999 111.987 C 157.351 112.244,157.473 112.286,157.320 112.097 C 157.087 111.810,156.430 111.377,156.430 111.509 M276.631 113.867 L 276.028 114.523 276.684 113.920 C 277.295 113.359,277.421 113.211,277.287 113.211 C 277.258 113.211,276.963 113.506,276.631 113.867 M239.197 114.081 C 239.006 114.202,238.988 114.298,239.129 114.440 C 239.271 114.582,239.349 114.537,239.418 114.272 C 239.470 114.073,239.500 113.912,239.485 113.913 C 239.470 113.915,239.340 113.990,239.197 114.081 M245.538 114.561 C 245.803 114.601,246.236 114.601,246.500 114.561 C 246.765 114.521,246.549 114.488,246.019 114.488 C 245.490 114.488,245.273 114.521,245.538 114.561 M251.402 114.734 C 251.620 114.776,251.934 114.775,252.102 114.731 C 252.269 114.687,252.091 114.653,251.706 114.655 C 251.321 114.657,251.184 114.693,251.402 114.734 M261.636 115.431 C 261.804 115.475,262.080 115.475,262.248 115.431 C 262.417 115.387,262.279 115.351,261.942 115.351 C 261.605 115.351,261.468 115.387,261.636 115.431 M267.060 115.431 C 267.229 115.475,267.504 115.475,267.673 115.431 C 267.841 115.387,267.703 115.351,267.367 115.351 C 267.030 115.351,266.892 115.387,267.060 115.431 M237.752 118.237 C 238.064 118.276,238.576 118.276,238.889 118.237 C 239.202 118.198,238.946 118.166,238.320 118.166 C 237.695 118.166,237.439 118.198,237.752 118.237 M243.876 118.409 C 244.092 118.450,244.447 118.450,244.663 118.409 C 244.880 118.367,244.703 118.333,244.269 118.333 C 243.836 118.333,243.659 118.367,243.876 118.409 M258.926 118.409 C 259.144 118.451,259.459 118.449,259.626 118.405 C 259.793 118.362,259.615 118.327,259.230 118.329 C 258.845 118.331,258.708 118.367,258.926 118.409 M250.787 118.590 C 251.533 118.623,252.754 118.623,253.500 118.590 C 254.245 118.557,253.635 118.531,252.143 118.531 C 250.652 118.531,250.042 118.557,250.787 118.590 M214.698 122.222 C 214.372 122.559,214.179 122.829,214.270 122.822 C 214.428 122.810,215.509 121.610,215.362 121.610 C 215.323 121.610,215.025 121.885,214.698 122.222 M232.752 123.199 C 232.633 123.391,232.446 123.494,232.338 123.427 C 232.213 123.349,232.191 123.385,232.278 123.525 C 232.380 123.691,232.503 123.655,232.776 123.382 C 232.976 123.183,233.101 122.981,233.055 122.935 C 233.008 122.889,232.872 123.008,232.752 123.199 M231.934 124.193 C 231.837 124.264,231.643 124.479,231.501 124.672 C 231.311 124.930,231.369 124.911,231.720 124.598 C 232.148 124.216,232.279 124.054,232.152 124.062 C 232.128 124.064,232.030 124.123,231.934 124.193 M190.191 125.155 C 189.182 126.314,189.099 126.456,189.351 126.612 C 189.477 126.690,189.509 126.662,189.433 126.541 C 189.365 126.431,189.609 126.010,189.980 125.595 C 190.757 124.726,191.146 124.234,191.054 124.237 C 191.018 124.238,190.630 124.651,190.191 125.155 M221.949 125.995 C 221.667 126.290,221.553 126.484,221.698 126.425 C 221.933 126.330,222.679 125.459,222.526 125.459 C 222.491 125.459,222.232 125.701,221.949 125.995 M118.158 126.509 C 118.158 126.942,118.192 127.119,118.234 126.903 C 118.275 126.686,118.275 126.332,118.234 126.115 C 118.192 125.899,118.158 126.076,118.158 126.509 M220.724 127.428 L 220.210 127.997 220.779 127.483 C 221.309 127.004,221.428 126.859,221.293 126.859 C 221.262 126.859,221.007 127.115,220.724 127.428 M190.803 128.303 L 190.289 128.871 190.857 128.357 C 191.387 127.878,191.507 127.734,191.371 127.734 C 191.341 127.734,191.085 127.990,190.803 128.303 M186.953 128.478 L 186.439 129.046 187.008 128.532 C 187.538 128.053,187.657 127.909,187.522 127.909 C 187.492 127.909,187.236 128.165,186.953 128.478 M219.409 128.915 L 218.985 129.396 219.436 129.001 C 219.683 128.784,219.952 128.665,220.032 128.739 C 220.113 128.812,220.122 128.773,220.053 128.653 C 219.887 128.365,219.899 128.360,219.409 128.915 M227.400 129.282 L 226.716 130.096 227.479 129.359 C 227.898 128.953,228.206 128.586,228.163 128.544 C 228.119 128.502,227.776 128.834,227.400 129.282 M217.924 130.577 L 217.410 131.146 217.979 130.632 C 218.509 130.153,218.628 130.009,218.493 130.009 C 218.463 130.009,218.207 130.265,217.924 130.577 M225.459 131.382 C 225.267 131.553,224.834 132.003,224.499 132.382 C 224.121 132.807,224.272 132.705,224.892 132.114 C 225.445 131.588,225.897 131.136,225.897 131.108 C 225.897 131.015,225.810 131.070,225.459 131.382 M213.252 135.392 C 212.026 136.620,211.024 137.676,211.024 137.738 C 211.024 137.800,212.028 136.831,213.255 135.584 C 215.873 132.924,215.650 133.158,215.556 133.158 C 215.514 133.158,214.478 134.163,213.252 135.392 M88.405 135.783 C 88.405 136.120,88.441 136.258,88.485 136.089 C 88.529 135.921,88.529 135.645,88.485 135.477 C 88.441 135.308,88.405 135.446,88.405 135.783 M122.572 136.483 C 123.046 136.964,123.473 137.358,123.521 137.358 C 123.570 137.358,123.221 136.964,122.747 136.483 C 122.273 136.002,121.846 135.608,121.798 135.608 C 121.750 135.608,122.098 136.002,122.572 136.483 M218.635 138.003 C 218.154 138.446,217.997 138.647,218.285 138.450 C 218.777 138.115,219.748 137.173,219.584 137.191 C 219.543 137.195,219.116 137.561,218.635 138.003 M216.877 139.676 L 216.185 140.420 216.929 139.728 C 217.621 139.085,217.753 138.933,217.621 138.933 C 217.592 138.933,217.258 139.267,216.877 139.676 M208.565 139.939 L 207.962 140.595 208.618 139.992 C 209.228 139.431,209.354 139.283,209.221 139.283 C 209.191 139.283,208.896 139.578,208.565 139.939 M215.289 140.723 C 215.304 140.991,215.226 141.101,215.048 141.062 C 214.904 141.029,214.844 141.062,214.915 141.133 C 214.987 141.204,214.957 141.368,214.850 141.497 C 214.495 141.925,214.799 141.741,215.285 141.234 C 215.685 140.816,215.722 140.704,215.515 140.532 C 215.314 140.365,215.272 140.401,215.289 140.723 M206.465 141.864 L 205.862 142.520 206.518 141.917 C 207.129 141.355,207.255 141.207,207.121 141.207 C 207.092 141.207,206.796 141.503,206.465 141.864 M208.125 147.025 L 207.612 147.593 208.136 147.159 C 208.425 146.920,208.736 146.664,208.828 146.591 C 208.931 146.507,208.927 146.457,208.817 146.457 C 208.719 146.457,208.408 146.712,208.125 147.025 M207.218 147.475 C 207.242 147.554,207.025 147.836,206.737 148.103 L 206.212 148.586 206.866 148.114 C 207.226 147.855,207.477 147.573,207.425 147.487 C 207.304 147.292,207.159 147.283,207.218 147.475 M97.638 151.151 C 97.638 151.230,97.847 151.486,98.103 151.719 L 98.568 152.143 98.158 151.575 C 97.730 150.983,97.638 150.908,97.638 151.151 M99.796 153.877 C 99.796 154.022,99.852 154.106,99.920 154.063 C 99.989 154.021,100.409 154.375,100.854 154.851 C 101.298 155.326,101.662 155.657,101.662 155.586 C 101.662 155.514,101.242 155.041,100.729 154.534 C 100.189 154.001,99.796 153.724,99.796 153.877 M203.718 156.384 C 204.175 156.420,204.923 156.420,205.381 156.384 C 205.838 156.348,205.464 156.319,204.549 156.319 C 203.635 156.319,203.261 156.348,203.718 156.384 M334.952 156.384 C 335.409 156.420,336.157 156.420,336.614 156.384 C 337.071 156.348,336.697 156.319,335.783 156.319 C 334.869 156.319,334.495 156.348,334.952 156.384 M230.883 180.140 L 230.884 203.237 247.988 203.238 L 265.092 203.240 248.032 203.194 L 230.972 203.148 230.927 180.095 L 230.882 157.043 230.883 180.140 M275.152 180.140 L 275.153 203.237 280.927 203.241 L 286.702 203.244 280.972 203.195 L 275.242 203.145 275.197 180.094 L 275.151 157.043 275.152 180.140 M63.298 165.485 C 66.113 165.512,70.720 165.512,73.535 165.485 C 76.350 165.458,74.046 165.436,68.416 165.436 C 62.787 165.436,60.483 165.458,63.298 165.485 M103.464 165.485 C 104.311 165.517,105.650 165.517,106.439 165.484 C 107.228 165.452,106.535 165.426,104.899 165.426 C 103.263 165.426,102.618 165.453,103.464 165.485 M247.988 165.485 C 251.043 165.512,256.043 165.512,259.099 165.485 C 262.154 165.459,259.654 165.437,253.543 165.437 C 247.432 165.437,244.932 165.459,247.988 165.485 M288.241 165.485 C 289.088 165.517,290.427 165.517,291.216 165.484 C 292.005 165.452,291.312 165.426,289.676 165.426 C 288.040 165.426,287.395 165.453,288.241 165.485 M136.352 167.925 C 136.520 167.969,136.796 167.969,136.964 167.925 C 137.133 167.881,136.995 167.845,136.658 167.845 C 136.321 167.845,136.183 167.881,136.352 167.925 M310.980 170.341 C 310.982 170.726,311.018 170.863,311.060 170.645 C 311.102 170.428,311.100 170.113,311.056 169.945 C 311.013 169.778,310.978 169.956,310.980 170.341 M134.516 170.552 C 134.734 170.594,135.049 170.593,135.216 170.549 C 135.384 170.505,135.206 170.471,134.821 170.473 C 134.436 170.475,134.299 170.511,134.516 170.552 M103.640 175.984 C 104.583 176.015,106.079 176.015,106.964 175.983 C 107.850 175.952,107.078 175.926,105.249 175.926 C 103.421 175.926,102.697 175.952,103.640 175.984 M288.417 175.984 C 289.360 176.015,290.856 176.015,291.741 175.983 C 292.627 175.952,291.855 175.926,290.026 175.926 C 288.198 175.926,287.473 175.952,288.417 175.984 M247.725 183.683 C 250.636 183.710,255.400 183.710,258.311 183.683 C 261.223 183.656,258.841 183.634,253.018 183.634 C 247.196 183.634,244.814 183.656,247.725 183.683 M187.829 194.313 C 187.829 197.104,187.853 198.221,187.882 196.796 C 187.912 195.371,187.912 193.087,187.882 191.722 C 187.853 190.356,187.829 191.522,187.829 194.313 M210.364 191.076 C 210.364 191.413,210.400 191.551,210.444 191.382 C 210.488 191.214,210.488 190.938,210.444 190.770 C 210.400 190.601,210.364 190.739,210.364 191.076 M303.038 203.196 C 303.111 203.269,306.001 203.308,309.460 203.283 L 315.748 203.237 309.326 203.149 C 305.794 203.101,302.964 203.122,303.038 203.196 M49.563 203.281 C 51.175 203.309,53.812 203.309,55.424 203.281 C 57.036 203.252,55.717 203.228,52.493 203.228 C 49.269 203.228,47.951 203.252,49.563 203.281 M93.132 203.281 C 94.744 203.309,97.382 203.309,98.994 203.281 C 100.606 203.252,99.287 203.228,96.063 203.228 C 92.839 203.228,91.520 203.252,93.132 203.281 M121.315 203.281 C 123.126 203.309,126.039 203.309,127.789 203.281 C 129.539 203.252,128.058 203.229,124.497 203.229 C 120.936 203.229,119.504 203.252,121.315 203.281 M134.952 203.281 C 136.660 203.309,139.455 203.309,141.164 203.281 C 142.872 203.252,141.474 203.228,138.058 203.228 C 134.641 203.228,133.244 203.252,134.952 203.281 M175.121 203.281 C 176.883 203.309,179.718 203.309,181.420 203.281 C 183.122 203.252,181.680 203.229,178.215 203.229 C 174.751 203.229,173.358 203.252,175.121 203.281 M231.545 224.976 C 232.005 225.012,232.714 225.011,233.120 224.975 C 233.526 224.938,233.150 224.908,232.283 224.909 C 231.417 224.910,231.085 224.940,231.545 224.976 M48.729 225.150 L 50.739 225.208 50.789 231.152 L 50.838 237.095 50.835 231.102 L 50.831 225.109 48.775 225.101 L 46.719 225.092 48.729 225.150 M68.503 225.150 L 70.514 225.208 70.560 239.201 L 70.607 253.193 70.605 239.151 L 70.604 225.109 68.547 225.101 L 66.491 225.092 68.503 225.150 M178.441 225.152 C 179.046 225.186,179.991 225.186,180.541 225.151 C 181.090 225.116,180.595 225.088,179.440 225.089 C 178.285 225.089,177.836 225.117,178.441 225.152 M192.016 226.859 C 192.017 227.918,192.046 228.328,192.081 227.771 C 192.115 227.215,192.115 226.348,192.080 225.847 C 192.045 225.345,192.016 225.801,192.016 226.859 M256.074 225.241 C 256.028 225.361,256.011 231.719,256.036 239.370 L 256.083 253.281 256.125 239.244 L 256.168 225.208 258.224 225.153 L 260.280 225.097 258.218 225.059 C 256.702 225.032,256.135 225.080,256.074 225.241 M283.020 225.241 C 282.974 225.361,282.958 231.719,282.983 239.370 L 283.029 253.281 283.072 239.244 L 283.115 225.208 285.171 225.153 L 287.227 225.097 285.165 225.059 C 283.648 225.032,283.082 225.080,283.020 225.241 M329.790 225.152 C 330.488 225.185,331.629 225.185,332.327 225.152 C 333.025 225.119,332.454 225.091,331.059 225.091 C 329.663 225.091,329.092 225.119,329.790 225.152 M349.642 225.151 C 350.288 225.185,351.390 225.185,352.092 225.152 C 352.794 225.119,352.266 225.091,350.919 225.091 C 349.571 225.091,348.997 225.118,349.642 225.151 M153.532 233.071 C 153.532 235.525,153.556 236.529,153.587 235.302 C 153.617 234.075,153.617 232.067,153.587 230.840 C 153.556 229.613,153.532 230.617,153.532 233.071 M201.658 240.945 C 201.658 247.730,201.679 250.505,201.706 247.113 C 201.733 243.720,201.733 238.169,201.706 234.777 C 201.679 231.385,201.658 234.160,201.658 240.945 M343.037 245.757 C 343.037 249.895,343.060 251.563,343.088 249.463 C 343.116 247.364,343.116 243.978,343.088 241.939 C 343.060 239.901,343.037 241.619,343.037 245.757 M153.535 241.165 C 153.489 241.286,153.473 244.061,153.500 247.333 L 153.548 253.281 153.589 247.205 L 153.631 241.130 155.949 241.076 L 158.268 241.021 155.944 240.983 C 154.211 240.955,153.598 241.001,153.535 241.165 M50.822 247.157 C 50.822 250.525,50.846 251.878,50.875 250.164 C 50.903 248.449,50.903 245.693,50.875 244.039 C 50.846 242.386,50.822 243.788,50.822 247.157 M129.965 249.992 C 130.182 250.034,130.536 250.034,130.752 249.992 C 130.969 249.951,130.792 249.916,130.359 249.916 C 129.926 249.916,129.748 249.951,129.965 249.992 " stroke="none" fill="#a18c7e" fill-rule="evenodd"></path><path id="path3" d="M197.594 47.190 C 197.762 47.234,198.038 47.234,198.206 47.190 C 198.375 47.146,198.237 47.110,197.900 47.110 C 197.563 47.110,197.426 47.146,197.594 47.190 M201.356 54.898 C 202.054 54.931,203.196 54.931,203.893 54.898 C 204.591 54.865,204.020 54.838,202.625 54.838 C 201.229 54.838,200.658 54.865,201.356 54.898 M157.830 68.854 C 157.405 69.287,157.097 69.641,157.145 69.641 C 157.193 69.641,157.580 69.287,158.005 68.854 C 158.430 68.421,158.739 68.066,158.691 68.066 C 158.642 68.066,158.255 68.421,157.830 68.854 M303.545 70.640 C 303.763 70.682,304.078 70.680,304.245 70.636 C 304.413 70.593,304.234 70.558,303.850 70.560 C 303.465 70.562,303.328 70.598,303.545 70.640 M270.162 74.497 L 268.679 76.028 270.210 74.545 C 271.632 73.167,271.821 72.966,271.693 72.966 C 271.667 72.966,270.978 73.655,270.162 74.497 M266.568 78.259 L 266.054 78.828 266.623 78.314 C 267.153 77.835,267.272 77.690,267.137 77.690 C 267.107 77.690,266.851 77.946,266.568 78.259 M256.518 82.152 C 256.093 82.585,255.785 82.940,255.833 82.940 C 255.881 82.940,256.268 82.585,256.693 82.152 C 257.118 81.719,257.426 81.365,257.378 81.365 C 257.330 81.365,256.943 81.719,256.518 82.152 M149.740 90.063 C 149.957 90.104,150.272 90.103,150.439 90.059 C 150.607 90.015,150.429 89.981,150.044 89.983 C 149.659 89.985,149.522 90.021,149.740 90.063 M155.599 90.059 C 155.768 90.103,156.043 90.103,156.212 90.059 C 156.380 90.015,156.242 89.979,155.906 89.979 C 155.569 89.979,155.431 90.015,155.599 90.059 M190.376 97.168 C 190.376 97.198,190.632 97.454,190.945 97.736 L 191.514 98.250 191.000 97.682 C 190.521 97.151,190.376 97.032,190.376 97.168 M190.551 101.017 C 190.551 101.047,190.807 101.303,191.120 101.586 L 191.689 102.100 191.175 101.531 C 190.696 101.001,190.551 100.882,190.551 101.017 M100.522 106.255 L 98.775 108.049 100.569 106.302 C 101.555 105.342,102.362 104.535,102.362 104.509 C 102.362 104.382,102.144 104.590,100.522 106.255 M153.193 108.836 C 153.862 109.510,154.448 110.061,154.496 110.061 C 154.544 110.061,154.037 109.510,153.368 108.836 C 152.700 108.163,152.113 107.612,152.065 107.612 C 152.017 107.612,152.525 108.163,153.193 108.836 M195.316 111.286 C 195.316 111.623,195.352 111.761,195.396 111.592 C 195.440 111.424,195.440 111.148,195.396 110.980 C 195.352 110.811,195.316 110.949,195.316 111.286 M195.316 112.861 C 195.316 113.198,195.352 113.336,195.396 113.167 C 195.440 112.999,195.440 112.723,195.396 112.555 C 195.352 112.386,195.316 112.524,195.316 112.861 M242.651 114.384 C 242.867 114.426,243.222 114.426,243.438 114.384 C 243.655 114.342,243.478 114.308,243.045 114.308 C 242.612 114.308,242.434 114.342,242.651 114.384 M248.515 114.561 C 248.781 114.601,249.175 114.600,249.390 114.559 C 249.605 114.517,249.388 114.484,248.906 114.486 C 248.425 114.487,248.249 114.521,248.515 114.561 M264.169 115.437 C 264.480 115.476,265.031 115.476,265.394 115.438 C 265.757 115.400,265.503 115.369,264.829 115.368 C 264.156 115.367,263.859 115.398,264.169 115.437 M241.076 118.409 C 241.293 118.450,241.647 118.450,241.864 118.409 C 242.080 118.367,241.903 118.333,241.470 118.333 C 241.037 118.333,240.860 118.367,241.076 118.409 M246.765 118.586 C 247.031 118.626,247.425 118.625,247.640 118.583 C 247.855 118.542,247.638 118.509,247.157 118.510 C 246.675 118.512,246.499 118.546,246.765 118.586 M256.826 118.584 C 257.044 118.626,257.359 118.624,257.526 118.580 C 257.693 118.537,257.515 118.502,257.130 118.504 C 256.745 118.506,256.609 118.542,256.826 118.584 M188.276 127.122 C 187.851 127.555,187.543 127.909,187.591 127.909 C 187.639 127.909,188.026 127.555,188.451 127.122 C 188.876 126.689,189.185 126.334,189.137 126.334 C 189.089 126.334,188.701 126.689,188.276 127.122 M189.667 129.615 L 189.064 130.271 189.720 129.668 C 190.331 129.107,190.457 128.959,190.323 128.959 C 190.294 128.959,189.999 129.254,189.667 129.615 M226.498 130.402 L 225.984 130.971 226.553 130.457 C 227.083 129.978,227.202 129.834,227.067 129.834 C 227.037 129.834,226.781 130.090,226.498 130.402 M216.093 132.415 L 214.961 133.596 216.142 132.463 C 216.791 131.841,217.323 131.309,217.323 131.282 C 217.323 131.154,217.145 131.318,216.093 132.415 M92.619 133.508 C 92.619 134.134,92.651 134.390,92.690 134.077 C 92.729 133.764,92.729 133.252,92.690 132.940 C 92.651 132.627,92.619 132.883,92.619 133.508 M88.237 133.333 C 88.237 133.766,88.271 133.944,88.312 133.727 C 88.354 133.510,88.354 133.156,88.312 132.940 C 88.271 132.723,88.237 132.900,88.237 133.333 M223.263 133.815 L 222.660 134.471 223.316 133.868 C 223.927 133.306,224.052 133.158,223.919 133.158 C 223.890 133.158,223.594 133.454,223.263 133.815 M221.863 135.214 L 221.260 135.871 221.916 135.268 C 222.527 134.706,222.653 134.558,222.519 134.558 C 222.490 134.558,222.194 134.853,221.863 135.214 M123.622 135.608 C 124.096 136.089,124.523 136.483,124.571 136.483 C 124.619 136.483,124.271 136.089,123.797 135.608 C 123.323 135.127,122.896 134.733,122.848 134.733 C 122.800 134.733,123.148 135.127,123.622 135.608 M143.178 142.208 C 143.444 142.248,143.838 142.247,144.053 142.205 C 144.268 142.164,144.051 142.131,143.570 142.132 C 143.088 142.134,142.912 142.168,143.178 142.208 M150.350 144.828 C 150.518 144.872,150.794 144.872,150.962 144.828 C 151.131 144.784,150.993 144.748,150.656 144.748 C 150.319 144.748,150.182 144.784,150.350 144.828 M99.388 153.161 C 99.388 153.191,99.643 153.447,99.956 153.729 L 100.525 154.243 100.011 153.675 C 99.532 153.144,99.388 153.025,99.388 153.161 M101.137 154.910 C 101.137 154.941,101.393 155.196,101.706 155.479 L 102.275 155.993 101.761 155.424 C 101.282 154.894,101.137 154.775,101.137 154.910 M46.629 180.140 C 46.629 192.940,46.650 198.150,46.675 191.719 C 46.701 185.287,46.701 174.815,46.675 168.447 C 46.650 162.078,46.629 167.340,46.629 180.140 M204.852 164.956 C 205.162 164.994,205.714 164.995,206.077 164.957 C 206.440 164.919,206.185 164.888,205.512 164.887 C 204.838 164.886,204.541 164.917,204.852 164.956 M336.264 164.956 C 336.577 164.995,337.089 164.995,337.402 164.956 C 337.714 164.917,337.458 164.885,336.833 164.885 C 336.207 164.885,335.951 164.917,336.264 164.956 M101.915 170.691 C 101.915 173.578,101.939 174.784,101.968 173.370 C 101.997 171.957,101.998 169.595,101.968 168.121 C 101.939 166.647,101.915 167.804,101.915 170.691 M138.191 167.928 C 138.409 167.970,138.724 167.968,138.891 167.924 C 139.058 167.880,138.880 167.846,138.495 167.848 C 138.110 167.850,137.973 167.886,138.191 167.928 M144.313 167.928 C 144.530 167.969,144.884 167.969,145.101 167.928 C 145.317 167.886,145.140 167.852,144.707 167.852 C 144.274 167.852,144.097 167.886,144.313 167.928 M136.877 170.729 C 137.141 170.769,137.574 170.769,137.839 170.729 C 138.104 170.689,137.887 170.656,137.358 170.656 C 136.829 170.656,136.612 170.689,136.877 170.729 M143.351 170.729 C 143.615 170.769,144.049 170.769,144.313 170.729 C 144.578 170.689,144.361 170.656,143.832 170.656 C 143.303 170.656,143.086 170.689,143.351 170.729 M253.059 175.109 L 263.511 175.156 263.562 179.442 L 263.614 183.727 263.609 179.396 L 263.605 175.066 253.106 175.064 L 242.607 175.062 253.059 175.109 M190.026 178.532 C 190.026 178.563,190.282 178.818,190.595 179.101 L 191.164 179.615 190.650 179.046 C 190.171 178.516,190.026 178.397,190.026 178.532 M101.918 184.646 C 101.871 184.766,101.855 189.038,101.881 194.138 L 101.928 203.412 101.970 194.013 L 102.012 184.613 103.981 184.558 L 105.949 184.502 103.975 184.464 C 102.529 184.437,101.979 184.485,101.918 184.646 M287.708 184.556 C 288.261 184.591,289.167 184.591,289.720 184.556 C 290.273 184.522,289.821 184.493,288.714 184.493 C 287.607 184.493,287.154 184.522,287.708 184.556 M154.024 185.958 C 155.829 185.986,158.782 185.986,160.586 185.958 C 162.391 185.929,160.914 185.906,157.305 185.906 C 153.696 185.906,152.220 185.929,154.024 185.958 M319.063 194.401 C 319.063 197.240,319.087 198.401,319.116 196.982 C 319.145 195.562,319.145 193.239,319.116 191.820 C 319.087 190.400,319.063 191.562,319.063 194.401 M152.887 194.182 C 155.702 194.209,160.308 194.209,163.123 194.182 C 165.938 194.155,163.635 194.133,158.005 194.133 C 152.375 194.133,150.072 194.155,152.887 194.182 M248.175 194.707 C 251.334 194.734,256.452 194.734,259.549 194.707 C 262.646 194.680,260.061 194.658,253.806 194.658 C 247.550 194.658,245.017 194.680,248.175 194.707 M181.536 239.020 C 181.536 246.767,181.557 249.937,181.583 246.063 C 181.610 242.189,181.610 235.851,181.583 231.977 C 181.557 228.104,181.536 231.273,181.536 239.020 M297.528 226.859 C 297.529 227.918,297.557 228.328,297.592 227.771 C 297.627 227.215,297.627 226.348,297.592 225.847 C 297.556 225.345,297.528 225.801,297.528 226.859 M321.150 226.859 C 321.151 227.918,321.180 228.328,321.214 227.771 C 321.249 227.215,321.249 226.348,321.214 225.847 C 321.178 225.345,321.150 225.801,321.150 226.859 M96.982 228.647 C 97.246 228.687,97.679 228.687,97.944 228.647 C 98.209 228.607,97.992 228.574,97.463 228.574 C 96.934 228.574,96.717 228.607,96.982 228.647 M311.369 240.857 C 311.369 247.594,311.391 250.324,311.417 246.925 C 311.444 243.526,311.444 238.014,311.417 234.677 C 311.391 231.339,311.369 234.121,311.369 240.857 M54.824 237.226 C 57.020 237.254,60.563 237.254,62.698 237.226 C 64.833 237.199,63.036 237.176,58.705 237.176 C 54.374 237.176,52.628 237.199,54.824 237.226 M338.837 246.107 C 338.837 249.956,338.861 251.506,338.889 249.551 C 338.917 247.596,338.917 244.446,338.889 242.552 C 338.860 240.657,338.837 242.257,338.837 246.107 M54.724 241.076 C 56.866 241.104,60.370 241.104,62.511 241.076 C 64.652 241.048,62.900 241.025,58.618 241.025 C 54.335 241.025,52.583 241.048,54.724 241.076 M86.264 249.431 C 86.591 249.768,86.897 250.044,86.945 250.044 C 86.993 250.044,86.766 249.768,86.439 249.431 C 86.113 249.094,85.806 248.819,85.758 248.819 C 85.710 248.819,85.938 249.094,86.264 249.431 M47.725 253.323 C 48.327 253.357,49.311 253.357,49.913 253.323 C 50.514 253.289,50.022 253.261,48.819 253.261 C 47.616 253.261,47.124 253.289,47.725 253.323 M67.760 253.323 C 68.314 253.357,69.219 253.357,69.773 253.323 C 70.326 253.288,69.873 253.260,68.766 253.260 C 67.660 253.260,67.207 253.288,67.760 253.323 M150.437 253.323 C 151.039 253.357,152.023 253.357,152.625 253.323 C 153.226 253.289,152.734 253.261,151.531 253.261 C 150.328 253.261,149.836 253.289,150.437 253.323 M178.441 253.323 C 179.046 253.357,179.991 253.357,180.541 253.322 C 181.090 253.288,180.595 253.260,179.440 253.260 C 178.285 253.260,177.836 253.289,178.441 253.323 M202.756 253.322 C 203.261 253.358,204.088 253.358,204.593 253.322 C 205.098 253.287,204.685 253.258,203.675 253.258 C 202.664 253.258,202.251 253.287,202.756 253.322 M219.729 253.323 C 220.330 253.357,221.315 253.357,221.916 253.323 C 222.517 253.289,222.025 253.261,220.822 253.261 C 219.619 253.261,219.127 253.289,219.729 253.323 M243.176 253.323 C 243.777 253.357,244.762 253.357,245.363 253.323 C 245.965 253.289,245.472 253.261,244.269 253.261 C 243.066 253.261,242.574 253.289,243.176 253.323 M260.149 253.324 C 262.483 253.352,266.301 253.352,268.635 253.324 C 270.969 253.297,269.059 253.274,264.392 253.274 C 259.724 253.274,257.815 253.297,260.149 253.324 M283.946 253.323 C 284.547 253.357,285.531 253.357,286.133 253.323 C 286.734 253.289,286.242 253.261,285.039 253.261 C 283.836 253.261,283.344 253.289,283.946 253.323 M308.275 253.323 C 308.880 253.357,309.825 253.357,310.374 253.322 C 310.924 253.288,310.429 253.260,309.274 253.260 C 308.119 253.260,307.669 253.289,308.275 253.323 M339.939 253.323 C 340.540 253.357,341.524 253.357,342.126 253.323 C 342.727 253.289,342.235 253.261,341.032 253.261 C 339.829 253.261,339.337 253.289,339.939 253.323 " stroke="none" fill="#b9aca6" fill-rule="evenodd"></path><path id="path4" d="M199.081 54.892 C 199.298 54.933,199.652 54.933,199.869 54.892 C 200.085 54.850,199.908 54.816,199.475 54.816 C 199.042 54.816,198.865 54.850,199.081 54.892 M205.293 54.889 C 205.462 54.933,205.737 54.933,205.906 54.889 C 206.074 54.845,205.936 54.809,205.599 54.809 C 205.262 54.809,205.125 54.845,205.293 54.889 M304.770 70.640 C 304.988 70.682,305.303 70.680,305.470 70.636 C 305.637 70.593,305.459 70.558,305.074 70.560 C 304.689 70.562,304.553 70.598,304.770 70.640 M197.783 112.248 C 197.783 112.922,197.815 113.176,197.853 112.813 C 197.891 112.450,197.890 111.899,197.852 111.588 C 197.813 111.278,197.782 111.575,197.783 112.248 M240.119 114.390 C 240.579 114.426,241.288 114.425,241.694 114.389 C 242.100 114.352,241.724 114.322,240.857 114.323 C 239.991 114.323,239.659 114.353,240.119 114.390 M247.202 114.559 C 247.420 114.601,247.735 114.600,247.902 114.556 C 248.070 114.512,247.892 114.478,247.507 114.480 C 247.122 114.482,246.985 114.518,247.202 114.559 M262.775 115.434 C 262.993 115.476,263.308 115.475,263.475 115.431 C 263.643 115.387,263.465 115.353,263.080 115.355 C 262.695 115.357,262.558 115.392,262.775 115.434 M242.476 118.409 C 242.692 118.450,243.047 118.450,243.263 118.409 C 243.480 118.367,243.303 118.333,242.870 118.333 C 242.437 118.333,242.259 118.367,242.476 118.409 M248.340 118.586 C 248.606 118.626,249.000 118.625,249.215 118.583 C 249.430 118.542,249.213 118.509,248.731 118.510 C 248.250 118.512,248.074 118.546,248.340 118.586 M255.162 118.586 C 255.427 118.626,255.860 118.626,256.124 118.586 C 256.389 118.545,256.172 118.513,255.643 118.513 C 255.114 118.513,254.897 118.545,255.162 118.586 M146.675 144.837 C 147.325 144.870,148.388 144.870,149.038 144.837 C 149.687 144.803,149.156 144.775,147.857 144.775 C 146.557 144.775,146.026 144.803,146.675 144.837 M139.319 170.733 C 139.964 170.767,141.066 170.767,141.768 170.734 C 142.470 170.700,141.942 170.673,140.595 170.673 C 139.248 170.672,138.673 170.700,139.319 170.733 " stroke="none" fill="#b29f8f" fill-rule="evenodd"></path></g></svg>